<?xml version="1.0" encoding="UTF-8"?><svg id="Ebene_1" xmlns="http://www.w3.org/2000/svg" viewBox="0 0 413.85 106.26"><defs><style>.cls-1{fill:#005488;}.cls-1,.cls-2{stroke-width:0px;}.cls-2{fill:#d7dfed;}</style></defs><path class="cls-2" d="m285.2,5.36l-11.76,4.32v7.92h-7.76v7.84h7.76v22.16c0,3.36,0,10.88,11.92,10.88,1.92,0,5.36-.24,9.2-1.28v-7.76c-1.44.16-2.24.24-4,.24-5.28,0-5.28-2.32-5.36-6v-18.24h9.6v-7.84h-9.6V5.36Z"/><rect class="cls-2" x="302.33" width="12.64" height="10.32"/><path class="cls-2" d="m258.64,31.28c0-1.84-.08-6.64-2.8-9.92-4-4.64-11.04-5.2-14.4-5.2-3.84,0-8.56.64-12.24,3.28-4.24,3.04-4.48,7.36-4.56,9.52h11.6c0-.96,0-2.24.88-3.6,1.04-1.52,2.8-2.24,4.48-2.24,1.12,0,4.24.4,5.28,3.36.48,1.44.56,2.72.56,5.36-3.92,0-11.04,0-16,2.24-7.44,3.44-8.56,9.36-8.56,12.56s1.12,6.48,3.52,8.88c1.6,1.52,4.24,3.2,10.08,3.2,2.24,0,7.6,0,12.08-6.48,0,1.2,0,3.04.4,5.52h10.72c-.72-3.36-.96-6.8-.96-10.24l-.08-16.24Zm-13.44,17.44c-1.12,1.28-2.88,2.32-5.04,2.32-3.92,0-5.76-3.04-5.76-5.76,0-4.8,5.44-7.2,13.04-6.56,0,4.32-.16,7.44-2.24,10Z"/><polygon class="cls-2" points="196.72 44.8 187.6 17.36 174.96 17.36 189.76 57.76 202.88 57.76 217.44 17.36 206 17.36 196.72 44.8"/><path class="cls-2" d="m366.57,37.6c0-11.28-6.32-21.2-20.96-21.2-15.92,0-20.88,11.76-20.88,21.52,0,14.16,9.12,21.28,20.64,21.28,14.64,0,21.2-10.24,21.2-21.6Zm-20.8,13.36c-5.84,0-8.88-3.92-8.88-12.96,0-3.68.08-13.68,8.72-13.68,7.84,0,8.88,7.44,8.88,12.8,0,10.72-3.52,13.84-8.72,13.84Z"/><path class="cls-2" d="m412.73,23.84c-1.04-2.8-4.4-7.6-12.32-7.6-8.8,0-12,5.2-13.12,7.04l-.32-6.08h-11.36c.24,2.8.24,7.2.24,7.36v33.2h11.92v-23.68c0-3.12.72-5.12,1.44-6.16,1.28-1.92,3.6-3.12,6.16-3.12,3.04,0,4.88,1.68,5.76,3.44.64,1.28.64,2.72.64,4.4v25.12h12.08v-21.84c0-7.52-.24-9.6-1.12-12.08Z"/><rect class="cls-2" x="302.73" y="17.28" width="11.84" height="40.48"/><path class="cls-2" d="m399.47,63.62c-4.16,0-9.6,1.04-12.96,7.52-.8-1.92-3.44-7.6-12.72-7.6-8.08,0-11.2,4.32-12.48,6.08l-.4-5.2h-11.44c.24,2.56.4,5.04.4,7.6v32.8h11.92v-23.76c0-2.72,0-9.12,7.44-9.12,6.56,0,6.64,5.76,6.64,8.88v24h11.92v-20.24c0-6,.16-12.64,7.28-12.64,6.16,0,6.8,4.8,6.8,9.12v23.76h11.92v-22.8c0-3.52.16-8.4-2-11.92-.88-1.6-4.16-6.48-12.32-6.48Z"/><rect class="cls-2" x="277.87" y="64.34" width="11.84" height="40.48"/><path class="cls-2" d="m327.15,80.82l-7.28-2c-3.52-.96-5.52-1.52-5.52-4.24,0-2.48,2.4-4,5.6-4,1.84,0,5.44.32,5.76,4.8h10.8c-.32-8.08-7.04-11.92-15.36-11.92-10.48,0-17.68,4.8-17.68,12.64,0,8.24,6.96,10.24,10.24,11.2l7.36,2c4.64,1.28,5.6,2.72,5.6,4.56,0,2.4-2,4.8-6.24,4.8-4.96,0-6.56-2.96-6.72-5.52h-11.12c.08,1.92.32,5.12,2.96,7.92,3.68,3.84,8.64,4.96,13.84,4.96,12.56,0,18.56-6.96,18.56-13.92,0-5.52-3.44-9.28-10.8-11.28Z"/><path class="cls-1" d="m169.68,37.6c0-11.28-6.32-21.2-20.96-21.2-15.92,0-20.88,11.76-20.88,21.52,0,14.16,9.12,21.28,20.64,21.28,14.64,0,21.2-10.24,21.2-21.6Zm-29.68.4c0-3.68.08-13.68,8.72-13.68,7.84,0,8.88,7.44,8.88,12.8,0,10.72-3.52,13.84-8.72,13.84-5.84,0-8.88-3.92-8.88-12.96Z"/><polygon class="cls-1" points="9.68 10.32 22.32 10.32 24.48 0 11.84 0 9.68 10.32"/><path class="cls-1" d="m54.56,16.24c-8.8,0-12,5.2-13.12,7.04l-.32-6.08h-11.36c.24,2.8.24,7.2.24,7.36v33.2h11.92v-23.68c0-3.12.72-5.12,1.44-6.16,1.28-1.92,3.6-3.12,6.16-3.12,3.04,0,4.88,1.68,5.76,3.44.64,1.28.64,2.72.64,4.4v25.12h12.08s-.24-31.44-1.12-33.92c-1.04-2.8-4.4-7.6-12.32-7.6Z"/><polygon class="cls-1" points="0 57.76 11.84 57.76 20.48 17.28 8.64 17.28 0 57.76"/><path class="cls-1" d="m228.03,91.06v-26.64h-12.16v20.4c0,6.88,0,12.56-7.6,12.56-6.32,0-6.32-5.36-6.32-8.88v-24.08h-12v25.12c0,2,0,7.6,2.64,10.88,2.24,2.96,6.72,5.44,12.16,5.44,7.68,0,10.72-4.64,11.92-6.4l.4,5.36h11.52c-.16-1.12-.24-1.84-.32-2.96,0-1.04-.08-2.08-.24-10.8Z"/><path class="cls-1" d="m117.92,55.07v-19.15c0-7.52-.24-9.6-1.12-12.08-1.04-2.8-4.4-7.6-12.32-7.6-8.8,0-12,5.2-13.12,7.04l-.32-6.08h-11.36c.24,2.8.24,7.2.24,7.36v33.2h11.92v-23.68c0-3.12.72-5.12,1.44-6.16,1.28-1.92,3.6-3.12,6.16-3.12,3.04,0,4.88,1.68,5.76,3.44.64,1.28.64,2.72.64,4.4v24.1h0v7.92h-7.57v7.84h7.57l.19,22.16c0,3.36,0,10.88,11.92,10.88,1.92,0,5.36-.24,9.2-1.28v-7.76c-1.44.16-2.24.24-4,.24-5.28,0-5.28-2.32-5.36-6l.15-18.24h9.45v-7.84h-9.45l-.02-9.59Z"/><path class="cls-1" d="m253.23,72.02l-.24-7.76h-11.12c.24,2.32.56,8.16.56,10.08v30.48h11.84v-19.92c0-5.04.72-11.2,12.72-10.08v-10.64c-9.6-.48-12.24,4.4-13.76,7.84Z"/><path class="cls-1" d="m156.51,63.46c-15.92,0-20.88,11.76-20.88,21.52,0,14.16,9.12,21.28,20.64,21.28,14.64,0,21.2-10.24,21.2-21.6s-6.32-21.2-20.96-21.2Zm.16,34.56c-5.84,0-8.88-3.92-8.88-12.96,0-3.68.08-13.68,8.72-13.68,7.84,0,8.88,7.44,8.88,12.8,0,10.72-3.52,13.84-8.72,13.84Z"/></svg>