<?xml version="1.0" encoding="utf-8"?>
<!-- Generator: Adobe Illustrator 28.0.0, SVG Export Plug-In . SVG Version: 6.00 Build 0)  -->
<svg version="1.1" xmlns="http://www.w3.org/2000/svg" xmlns:xlink="http://www.w3.org/1999/xlink" x="0px" y="0px"
	 viewBox="0 0 512 512" style="enable-background:new 0 0 512 512;" xml:space="preserve">
<style type="text/css">
	.st0{fill:#0D6EFD;}
</style>
<g id="Ebene_1">
</g>
<g id="Layer_2">
	<g>
		<path class="st0" d="M254.6,88.2c-96.2,0-174.4,78.2-174.4,174.4s78.2,174.4,174.4,174.4S429,358.9,429,262.7
			S350.8,88.2,254.6,88.2z M347.1,207.9c-6.4-6.4-16.8-6.6-23.4-0.5l-83.1,77.2l-42.1-42.1c-6.4-6.4-16.8-6.6-23.4-0.4l-57.3,53.1
			c-2.5-10.5-3.9-21.3-3.9-32.5c0-77.5,63.1-140.7,140.7-140.7c75.2,0,136.6,59.3,140.3,133.7L347.1,207.9z"/>
	</g>
</g>
<g id="Isolationsmodus">
	<path class="st0" d="M256.8,29c75.7,0,137,22.9,183.9,68.6c46.9,45.7,70.3,98.9,70.3,159.5c0,61.5-23.8,114.8-71.3,160
		c-47.5,45.2-108.5,67.8-182.9,67.8c-75.3,0-136.6-22.5-183.9-67.4C25.6,372.5,2,319,2,257.1C2,196.2,25.5,143,72.5,97.4
		C119.4,51.8,180.9,29,256.8,29z M256.8,392.6c42,0,75.8-12.5,101.5-37.4c25.7-24.9,38.5-57.6,38.5-98.1c0-40.7-12.8-73.5-38.5-98.3
		c-25.7-24.8-59.5-37.2-101.5-37.2c-42.2,0-76.2,12.4-102,37.2c-25.8,24.8-38.7,57.6-38.7,98.3c0,40.5,12.9,73.2,38.7,98.1
		C180.6,380.2,214.6,392.6,256.8,392.6z"/>
</g>
</svg>
