<?xml version="1.0" encoding="utf-8"?>
<!-- Generator: Adobe Illustrator 28.0.0, SVG Export Plug-In . SVG Version: 6.00 Build 0)  -->
<svg version="1.1" id="Ńëîé_2" xmlns="http://www.w3.org/2000/svg" xmlns:xlink="http://www.w3.org/1999/xlink" x="0px" y="0px"
	 viewBox="0 0 5000 5000" style="enable-background:new 0 0 5000 5000;" xml:space="preserve">
<style type="text/css">
	.st0{clip-path:url(#SVGID_00000004519474266833423950000015174199009189744063_);}
	.st1{fill:#EDE7DB;}
	.st2{fill:#B5D379;}
	.st3{fill:none;stroke:#FFFFFF;stroke-width:50;stroke-linecap:round;stroke-linejoin:round;stroke-miterlimit:10;}
	.st4{display:none;}
	.st5{display:inline;fill:none;stroke:#FFFFFF;stroke-width:30;stroke-linecap:round;stroke-linejoin:round;stroke-miterlimit:10;}
	.st6{display:none;fill:none;stroke:#FFFFFF;stroke-width:30;stroke-linecap:round;stroke-linejoin:round;stroke-miterlimit:10;}
	.st7{fill:#FFFFFF;}
	.st8{fill:#5BAFB2;}
	.st9{fill:none;stroke:#FFFFFF;stroke-width:80;stroke-linecap:round;stroke-linejoin:round;stroke-miterlimit:10;}
	.st10{fill:none;stroke:#FFFFFF;stroke-width:60;stroke-linecap:round;stroke-linejoin:round;stroke-miterlimit:10;}
</style>
<g>
	<defs>
		<rect id="SVGID_1_" width="5000" height="5000"/>
	</defs>
	<clipPath id="SVGID_00000106126350856935397250000012140478169899652529_">
		<use xlink:href="#SVGID_1_"  style="overflow:visible;"/>
	</clipPath>
	<g style="clip-path:url(#SVGID_00000106126350856935397250000012140478169899652529_);">
		<rect x="-1500" class="st1" width="5000" height="5000"/>
		<g>
			<polygon class="st2" points="-477,3026 -561,2410 -1300,2500 -1197,3033 			"/>
			<path class="st2" d="M-600,4460c648.5,613.5,1335,1023,1896,644l163-439l-355-338l-413,378l-976-486L-600,4460z"/>
			<path class="st2" d="M-632-447C16.5,166.5,677,533,1250,247l184-515l-344-325L691-295l-974-426L-632-447z"/>
			<circle class="st2" cx="1738" cy="3915" r="257"/>
			<circle class="st2" cx="-725" cy="1241" r="172"/>
			<polygon class="st2" points="1153,2684 1433,3268 1942,3145 1819,2875 2753,2276 2178,1463 			"/>
			<polygon class="st2" points="338,432.6 361,824.4 1067,720 1153.4,488.1 			"/>
		</g>
		<g>
			<polyline class="st3" points="1104,4326.6 671,4643 -301,4219 -563,4440 			"/>
			<line class="st3" x1="2177.7" y1="1463.3" x2="3670" y2="3569"/>
			<polyline class="st3" points="-2822.3,1463.3 -1330,3569 -1435,4580 -676.1,4935.7 			"/>
			<polyline class="st3" points="2753,2276 1819,2875 1942,3145 1433,3268 			"/>
			<g class="st4">
				<line class="st5" x1="4701" y1="159" x2="4701" y2="1993"/>
				<line class="st5" x1="5016" y1="832" x2="5016" y2="1993"/>
				<line class="st5" x1="5016" y1="159" x2="5016" y2="702"/>
				<line class="st5" x1="5331" y1="159" x2="5331" y2="1993"/>
				<rect x="4883" y="702" class="st5" width="266" height="130"/>
				<line class="st5" x1="5149" y1="767" x2="5331" y2="767"/>
				<line class="st5" x1="4701" y1="957" x2="5331" y2="957"/>
				<line class="st5" x1="4883" y1="767" x2="4701" y2="767"/>
				<line class="st5" x1="4701" y1="1147" x2="5331" y2="1147"/>
				<line class="st5" x1="4701" y1="1337" x2="5331" y2="1337"/>
				<line class="st5" x1="4701" y1="1525" x2="5331" y2="1525"/>
				<line class="st5" x1="4701" y1="1715" x2="5331" y2="1715"/>
				<line class="st5" x1="4701" y1="577" x2="5331" y2="577"/>
			</g>
			<g class="st4">
				<line class="st5" x1="2289.4" y1="1331.2" x2="3700" y2="2503.3"/>
				<line class="st5" x1="3008.3" y1="1519.1" x2="3901.3" y2="2261.1"/>
				<line class="st5" x1="2490.7" y1="1088.9" x2="2908.4" y2="1436"/>
				<line class="st5" x1="2692" y1="846.7" x2="4102.6" y2="2018.8"/>
				
					<rect x="2825.3" y="1412.5" transform="matrix(0.6391 -0.7691 0.7691 0.6391 -68.7427 2808.5283)" class="st5" width="266" height="130"/>
				<line class="st5" x1="3043.3" y1="1375.2" x2="3159.7" y2="1235.2"/>
				<polyline class="st5" points="2903.2,1841.2 3305.8,1356.7 3369,859 				"/>
				<polyline class="st5" points="2873.3,1579.8 2757,1719.8 2490.7,1905 				"/>
				<line class="st5" x1="3195.4" y1="2084.1" x2="3598.1" y2="1599.5"/>
				<line class="st5" x1="3486.1" y1="2325.7" x2="3888.8" y2="1841.1"/>
				<line class="st5" x1="2610.9" y1="1598.4" x2="3013.5" y2="1113.8"/>
			</g>
			<g class="st4">
				<polyline class="st5" points="-2710.6,1331.2 -1300,2503.3 -561,2422 				"/>
				<line class="st5" x1="-1991.7" y1="1519.1" x2="-1163.3" y2="2207.5"/>
				<line class="st5" x1="-2509.3" y1="1088.9" x2="-2091.6" y2="1436"/>
				<line class="st5" x1="-2308" y1="846.7" x2="-588" y2="2276"/>
				
					<rect x="-2174.7" y="1412.5" transform="matrix(0.6391 -0.7691 0.7691 0.6391 -1873.1945 -1037.0496)" class="st5" width="266" height="130"/>
				<line class="st5" x1="-1956.7" y1="1375.2" x2="-1840.3" y2="1235.2"/>
				<line class="st5" x1="-2096.8" y1="1841.2" x2="-1694.2" y2="1356.7"/>
				<line class="st5" x1="-2126.7" y1="1579.8" x2="-2243" y2="1719.8"/>
				<line class="st5" x1="-1804.6" y1="2084.1" x2="-1401.9" y2="1599.5"/>
				<line class="st5" x1="-1513.9" y1="2325.7" x2="-1111.2" y2="1841.1"/>
				<line class="st5" x1="-2389.1" y1="1598.4" x2="-1986.5" y2="1113.8"/>
			</g>
			<polyline class="st3" points="-1101,3528 -1300,2503 -1046,2229 			"/>
			<circle class="st6" cx="-1111" cy="2251" r="68"/>
			<polyline class="st3" points="-606,2095 -1046.5,2229.5 -1417.9,1488.3 			"/>
			<line class="st3" x1="-1197.2" y1="3032.6" x2="-477" y2="3026"/>
			<line class="st3" x1="1942" y1="3145" x2="3323.8" y2="3080.4"/>
			<line class="st3" x1="902" y1="1165" x2="1935" y2="1752.5"/>
			<polyline class="st3" points="-1833.8,2858.1 -1300,2500 -561,2410 305,2772 1153,2684 2858,653 3076,275 2580,-1236 2514,-1882 
							"/>
			<polyline class="st3" points="4439,2410 3700,2500 3166.2,2858.1 			"/>
			<line class="st3" x1="-424" y1="3407" x2="-301" y2="4219"/>
			<polyline class="st3" points="-1355,3807 -362.5,3865.7 440,3663 			"/>
			<polyline class="st3" points="185,4431 598,3813 1541,3455 			"/>
			<polyline class="st3" points="2514,3118 2580,3764 3076,5275 			"/>
			<line class="st3" x1="338" y1="390" x2="361" y2="1060"/>
			<line class="st3" x1="-907" y1="1303" x2="-2521" y2="1888.4"/>
			<line class="st3" x1="4093" y1="1303" x2="2479" y2="1888.4"/>
			<line class="st3" x1="902" y1="2728" x2="811.2" y2="3732"/>
			<line class="st3" x1="270" y1="2931" x2="863" y2="3159.4"/>
			<polyline class="st3" points="1793.5,1672 2399,670 1670,69 			"/>
			<polyline class="st3" points="1541,702 2178,1036 2312,1303.4 			"/>
			<polyline class="st3" points="4093,149 3324,859 3075.6,1672 3360.1,2728 			"/>
			<polyline class="st3" points="-1924.4,1672 -1676,859 -528,-201 			"/>
			<polyline class="st3" points="-1924.4,6672 -1676,5859 -528,4799 			"/>
			<line class="st3" x1="-922" y1="162.8" x2="811" y2="1375"/>
			<polyline class="st3" points="24,824.4 -135,1438 105,2688.4 -170,3362 			"/>
			<line class="st3" x1="3076" y1="275" x2="3802.6" y2="417.1"/>
			<polyline class="st3" points="-1924,275 -1197.4,417.1 -1173,1060 			"/>
			<line class="st3" x1="-1435" y1="4580" x2="-2093" y2="4842"/>
			<polyline class="st3" points="3565,4580 2931,4833 1942,4643 			"/>
			<line class="st3" x1="361" y1="824.4" x2="1067" y2="720"/>
		</g>
		<g>
			<g>
				<g>
					<path class="st7" d="M-1613.4,3886.1c72.4,6.7,144.8,18.3,216.1,35.4l26.7,6.5c8.9,2.3,17.7,4.9,26.5,7.3l13.2,3.7l6.6,1.9
						c2.2,0.6,4.4,1.3,6.6,2l26.2,8.2l13.1,4.1l13,4.5l25.9,9.1c4.3,1.5,8.6,3.2,12.9,4.8l12.8,4.9l12.8,4.9
						c4.3,1.7,8.6,3.2,12.7,5.1l25.2,10.6l12.6,5.3l12.4,5.7l24.8,11.4l3.1,1.4l3.1,1.5l6.1,3l12.2,6l12.2,6l6.1,3l6,3.2l24,12.7
						c8.1,4.2,15.9,8.7,23.7,13.1c7.9,4.4,15.7,8.8,23.6,13.3l23.2,13.9l11.6,6.9c3.8,2.3,7.6,4.8,11.4,7.2l22.7,14.4
						c3.8,2.4,7.5,4.9,11.2,7.3l11.1,7.4l11.1,7.4c1.8,1.2,3.7,2.5,5.6,3.7l5.5,3.8l21.9,15.3l5.5,3.8c1.8,1.3,3.6,2.6,5.4,3.9
						l10.7,7.8l10.7,7.8c3.6,2.6,7.2,5.2,10.7,7.9l21,16c3.5,2.7,7,5.3,10.5,8l10.3,8.1l20.6,16.3l20.3,16.5l10.1,8.3l10,8.4
						l19.9,16.7l19.6,16.9c6.5,5.6,13.1,11.3,19.5,17c51.6,45.5,101.3,91.9,149.5,138.2l36,34.7l35.6,34.4
						c23,22.3,46.2,44.3,69.6,66c46.7,43.4,94.3,85.7,142.8,126.5c96.9,81.5,197.7,157.1,302,224c52.2,33.4,105.2,64.7,158.9,93.1
						c26.9,14.2,53.9,27.9,81.1,40.6c27.2,12.8,54.5,24.8,81.9,36.1c27.4,11.2,55,21.5,82.5,30.9c3.4,1.2,6.9,2.3,10.4,3.5l10.3,3.4
						l10.4,3.3c3.5,1.1,6.9,2.2,10.4,3.2l10.4,3.1c3.4,1.1,6.9,2,10.4,3c3.5,1,6.9,2,10.4,2.9l10.4,2.8l5.2,1.4l5.2,1.3l10.4,2.6
						c3.5,0.9,6.9,1.6,10.4,2.5c3.5,0.8,6.9,1.7,10.4,2.4c6.9,1.5,13.8,3.1,20.7,4.5l10.3,2.1l10.3,1.9c27.6,5.2,55,9.1,82.3,11.7
						c6.8,0.7,13.6,1.2,20.5,1.8c3.4,0.3,6.8,0.5,10.2,0.7l10.2,0.6c13.6,0.6,27.1,1.1,40.6,1c13.5,0.1,26.9-0.4,40.2-1
						c13.3-0.8,26.6-1.7,39.8-3.2c13.2-1.3,26.3-3.3,39.4-5.3l9.8-1.7c3.2-0.6,6.5-1.1,9.7-1.8c6.5-1.3,13-2.5,19.4-4.1
						c25.7-5.8,51.2-12.8,76.1-21.6c25-8.7,49.6-18.7,73.7-30.2l2.3-1.1l2.3-1.1l4.5-2.2l9-4.4l8.9-4.7l4.5-2.3
						c1.5-0.8,3-1.5,4.5-2.4c11.8-6.5,23.6-13.2,35.2-20.3c46.5-28.3,91.1-61.8,133.5-99.5c21.2-18.8,41.9-38.7,62-59.5
						c20.1-20.8,39.7-42.4,58.8-64.8c19-22.4,37.5-45.7,55.4-69.5l6.7-9c2.2-3,4.5-6,6.7-9l13.2-18.2c8.6-12.3,17.4-24.6,25.8-37.1
						c4.2-6.2,8.5-12.5,12.6-18.9l12.5-19l26.4-41.5c19.9-30.9,40.8-61.1,62.7-90.6c21.9-29.4,44.9-57.9,68.8-85.7
						c23.9-27.7,48.6-54.6,74.2-80.6c102.5-103.8,218-193.2,341.6-267.1c123.6-74.1,255.5-132.5,391.5-176.2
						c136.1-43.4,276.5-71.8,418.1-85c35.4-3.3,70.9-5.5,106.4-7l13.3-0.5c4.4-0.2,8.9-0.3,13.3-0.4l26.6-0.5
						c17.8-0.1,35.5-0.3,53.3,0.1c71.1,0.9,142,5.9,212.6,14.3c68.8,8.3,137.9,19,207.2,33.1c69.3,14.1,138.8,31.8,208,54.2
						c77.4,25.1,119.8,108.2,94.7,185.6c-25.1,77.4-108.2,119.8-185.6,94.7c-0.7-0.2-2.1-0.7-2.8-0.9
						c-55.5-19.2-113.5-34.5-173-46.8c-59.5-12.2-120.6-21.4-182.3-28.4c-30-3.3-60.2-5.8-90.3-7.5l-22.6-1.1l-22.7-0.7l-5.7-0.2
						l-5.7-0.1l-11.3-0.2l-11.3-0.2l-11.3,0c-15.1-0.1-30.2,0.3-45.3,0.6l-22.6,0.8c-3.8,0.1-7.5,0.3-11.3,0.5l-11.3,0.6
						c-3.8,0.2-7.5,0.4-11.3,0.6l-11.3,0.8c-7.5,0.5-15.1,1-22.6,1.7c-7.5,0.7-15,1.3-22.6,2l-22.5,2.3c-30,3.3-59.9,7.4-89.7,12.3
						l-22.3,3.8l-22.2,4.2l-5.6,1l-5.5,1.1l-11.1,2.3l-11.1,2.3l-11,2.5c-58.9,13-116.8,29.4-173.7,48.7
						c-28.4,9.7-56.5,20.3-84.3,31.5l-10.4,4.3l-5.2,2.1l-5.2,2.2l-20.6,8.9l-20.5,9.2c-3.4,1.5-6.8,3.1-10.2,4.7l-10.1,4.8
						c-27,12.9-53.6,26.4-79.8,40.7c-26.2,14.3-51.8,29.5-77,45.3c-100.7,63.2-193,138.3-273.5,223.5
						c-40.2,42.6-77.4,87.7-111.3,134.9c-16.9,23.7-32.9,47.9-48.1,72.5l-25.8,42.2c-4.7,7.5-9.4,15-14.2,22.5
						c-4.7,7.5-9.6,14.9-14.4,22.4c-38.7,59.6-81,117.7-127.1,173.8c-23.1,28-47.3,55.5-72.6,82.3c-25.3,26.8-51.7,52.8-79.4,78
						c-55.3,50.3-115.7,96.9-181.2,137.5c-16.3,10.2-33.1,19.9-50,29.3c-2.1,1.2-4.2,2.3-6.4,3.5l-6.4,3.4l-12.9,6.8l-13,6.6
						l-6.5,3.3l-3.3,1.6l-3.3,1.6c-35.1,16.9-71.4,32-108.4,45.1c-4.6,1.7-9.3,3.2-13.9,4.8l-14,4.6l-14.1,4.3
						c-4.7,1.4-9.4,2.9-14.1,4.2c-9.5,2.6-18.9,5.4-28.5,7.7l-14.3,3.6l-14.4,3.3c-9.6,2.3-19.2,4.1-28.9,6.1
						c-4.8,1-9.7,1.8-14.5,2.7c-4.8,0.9-9.7,1.8-14.5,2.6c-19.4,3.1-38.8,6-58.3,8c-19.5,2.2-39,3.6-58.5,4.8
						c-19.5,0.9-39,1.6-58.4,1.5c-4.8,0-9.7,0-14.5-0.1l-14.5-0.3l-7.3-0.2l-7.2-0.3L758,5558c-19.2-1.2-38.4-2.5-57.5-4.6
						c-4.8-0.5-9.5-1-14.3-1.6l-14.2-1.8l-7.1-0.9l-7.1-1l-14.1-2.1c-4.7-0.7-9.4-1.5-14-2.3c-4.7-0.8-9.4-1.5-14-2.4
						c-9.3-1.7-18.6-3.4-27.8-5.3l-13.9-2.8l-13.8-3.1c-9.2-2-18.3-4.3-27.4-6.4c-4.6-1.1-9.1-2.3-13.6-3.5
						c-4.5-1.2-9.1-2.3-13.5-3.5l-13.5-3.7l-6.7-1.9l-6.7-2c-35.6-10.4-70.7-22.1-104.9-34.9c-34.3-12.9-67.9-26.8-100.8-41.6
						c-32.9-14.9-65.2-30.7-96.8-47.3c-4-2-7.9-4.1-11.8-6.2l-11.8-6.3c-7.8-4.2-15.6-8.5-23.4-12.8c-15.5-8.7-30.9-17.5-46.1-26.5
						c-60.9-35.9-119.5-74.4-176.3-114.5c-28.4-20.1-56.3-40.6-83.9-61.5c-13.8-10.4-27.4-21-41-31.6c-13.6-10.6-27-21.3-40.4-32.1
						c-53.6-43.1-105.7-87.5-156.6-132.7c-51-45.3-100.8-91.4-149.6-138.3c-24.4-23.4-48.6-47-72.5-70.8l-34.9-34.7
						c-11.5-11.4-23.1-22.9-34.6-34.1c-11.5-11.4-23-22.5-34.6-33.7c-5.8-5.6-11.5-11.1-17.3-16.6c-5.8-5.5-11.5-11.1-17.3-16.5
						c-11.5-10.9-23.1-21.8-34.7-32.4c-5.8-5.3-11.6-10.7-17.4-16l-17.5-15.7c-5.8-5.3-11.7-10.4-17.6-15.6l-17.6-15.4l-17.7-15.1
						l-8.9-7.5l-8.9-7.4l-17.9-14.7l-18-14.3l-9-7.2c-3-2.4-6.1-4.7-9.1-7l-18.2-13.9c-48.7-36.6-98.6-70.2-149.9-100.2l-19.4-10.9
						c-6.5-3.6-12.9-7.4-19.5-10.7l-19.6-10.3l-4.9-2.6l-5-2.4l-9.9-4.8l-9.9-4.8l-5-2.4l-2.5-1.2l-2.5-1.1l-20-9.1l-10-4.5
						l-10.1-4.2l-20.3-8.4c-108.5-43.3-222.8-69-340.1-76.7c-81.2-5.3-142.7-75.5-137.4-156.7c5.3-81.2,75.5-142.7,156.7-137.4
						c1.1,0.1,2.1,0.1,3.2,0.2L-1613.4,3886.1z"/>
				</g>
			</g>
			<g>
				<g>
					<path class="st8" d="M-1617.9,3943.3c69.7,6.9,139.1,18.2,207.4,34.8c68.3,16.5,135.4,38,200.4,64.4
						c64.9,26.5,127.7,57.6,188,92.3c60.1,35,117.7,73.3,172.9,114.2l20.6,15.5c3.4,2.6,6.9,5.1,10.2,7.8l10.1,7.9l20.2,15.8
						l19.9,16.1l10,8l9.8,8.1l19.6,16.3l19.4,16.5c6.4,5.5,12.9,11,19.2,16.6l19.1,16.7c6.4,5.6,12.6,11.2,18.9,16.8
						c12.6,11.2,25,22.5,37.4,33.8c24.7,22.6,49.2,45.4,73.4,68.1l36.2,34.1l36,33.9c23.6,22.2,47.3,44,71.3,65.6
						c24,21.5,48.2,42.8,72.7,63.7c24.4,20.9,49.1,41.5,74,61.7c99.6,80.9,202.8,156.1,309.1,223.8c53.2,33.8,107.1,65.8,161.8,95.2
						c54.7,29.5,110.2,56.5,166.4,80.3c14.1,5.9,28.2,11.7,42.3,17.2l10.6,4.1l10.6,4c7.1,2.7,14.2,5.2,21.3,7.8
						c28.4,10.2,57,19.3,85.7,27.4c28.7,8.1,57.6,15,86.4,20.6c7.2,1.5,14.4,2.7,21.7,4c3.6,0.7,7.2,1.2,10.8,1.8
						c3.6,0.6,7.2,1.2,10.8,1.7l10.8,1.5l5.4,0.8l5.4,0.7l10.8,1.4c3.6,0.4,7.2,0.8,10.8,1.2c14.4,1.6,28.9,2.6,43.3,3.5
						c14.4,0.7,28.8,1.3,43.1,1.2c14.4,0.2,28.6-0.3,42.9-0.9c14.2-0.8,28.5-1.7,42.6-3.3c14.2-1.4,28.2-3.4,42.2-5.5l10.5-1.8
						c3.5-0.6,7-1.2,10.5-1.9c6.9-1.4,13.9-2.7,20.8-4.3c27.7-6.1,55-13.6,81.9-22.9c26.8-9.2,53.3-19.9,79.2-32.1
						c25.9-12.1,51.3-25.9,76-40.8c49.6-30,96.8-65.2,141.4-104.6c44.6-39.4,86.8-82.8,126.4-129.2c19.8-23.3,39-47.2,57.6-71.7
						l7-9.2c2.3-3.1,4.7-6.1,6.9-9.3l13.7-18.7c8.9-12.7,18-25.3,26.6-38.2l6.6-9.6c2.2-3.2,4.3-6.5,6.5-9.7l12.9-19.5l26.5-41.5
						c19.3-29.8,39.5-58.9,60.7-87.3c21.3-28.3,43.6-55.8,66.7-82.5c23.1-26.7,47-52.7,71.9-77.7
						c99.3-100.1,211.2-186.4,331.2-257.7c30-17.8,60.5-34.8,91.4-50.8c31-16,62.3-31,94.1-45.2l11.9-5.3c4-1.7,7.9-3.6,11.9-5.2
						l24-10.1l24.2-9.7l6-2.4l6.1-2.3l12.2-4.7c32.4-12.3,65.2-23.8,98.2-34.3c66.1-20.9,133.2-38.4,201-51.9l12.7-2.6l12.7-2.4
						l12.7-2.4l6.4-1.2l6.4-1.1l25.6-4.3l25.6-3.9c34.2-5,68.5-9,102.9-12.2c34.4-3.1,68.9-5.3,103.3-6.7l12.9-0.5
						c4.3-0.2,8.6-0.3,12.9-0.4l25.9-0.5c17.3-0.1,34.5-0.2,51.8,0.2c34.5,0.6,69,1.9,103.4,4.4c34.4,2.4,68.8,5.6,103,9.7
						c67.4,8.2,134.9,18.6,202.3,32.3c33.7,6.9,67.3,14.5,100.9,23.2l12.6,3.3l12.6,3.4c8.4,2.2,16.8,4.6,25.1,7l6.3,1.8l6.3,1.9
						l12.5,3.8c8.4,2.5,16.7,5.2,25,7.8c47.5,14.7,74,65.2,59.3,112.6c-14.7,47.5-65.2,74-112.6,59.3c-0.6-0.2-1.3-0.4-1.9-0.6
						l-2-0.7c-7.3-2.5-14.5-5-21.9-7.4l-11-3.5l-5.5-1.8l-5.5-1.7c-7.4-2.2-14.8-4.5-22.2-6.6l-11.2-3.2l-11.2-3
						c-30-8.1-60.4-15.2-91.1-21.6c-61.4-12.7-124.1-22.1-187.2-29.1c-31.1-3.4-62.2-5.9-93.4-7.6l-23.4-1.1l-23.4-0.7l-5.9-0.2
						l-5.9-0.1l-11.7-0.2l-11.7-0.2l-11.7,0c-15.6-0.1-31.2,0.3-46.9,0.6l-23.4,0.8c-3.9,0.1-7.8,0.3-11.7,0.5l-11.7,0.6
						c-31.2,1.8-62.3,4.2-93.3,7.7c-31,3.5-61.9,7.8-92.7,12.9l-23,4l-23,4.3l-5.7,1.1l-5.7,1.2l-11.4,2.4l-11.4,2.4l-11.4,2.6
						c-60.8,13.5-120.8,30.6-179.7,50.6c-117.5,40.5-230.4,93.8-334.7,159.8c-104.4,65.7-200.3,144-283.9,232.8
						c-20.9,22.2-41,45.2-60.3,68.7c-19.3,23.5-37.8,47.6-55.4,72.3c-17.6,24.7-34.3,50-50.1,75.9l-25.6,42.2
						c-4.5,7.4-9.2,14.7-13.7,22c-4.5,7.4-9.3,14.6-14,21.9c-9.3,14.6-19.1,29-28.8,43.4l-14.9,21.4c-2.5,3.6-5,7.1-7.6,10.7
						l-7.6,10.6c-20.5,28.3-41.8,56.1-64.1,83.4c-22.3,27.2-45.7,53.9-70,79.9c-24.3,25.9-49.7,51.2-76.3,75.5
						c-53.1,48.5-110.8,93.4-173.2,132.3c-15.6,9.8-31.5,19.1-47.6,28.1c-2,1.2-4,2.2-6.1,3.3l-6.1,3.3l-12.2,6.5l-12.4,6.3
						l-6.2,3.1l-3.1,1.6l-3.1,1.5c-33.4,16.2-67.8,30.7-103,43.2c-4.4,1.6-8.8,3.1-13.2,4.6l-13.3,4.4l-13.4,4.2
						c-4.5,1.4-8.9,2.8-13.4,4c-9,2.5-18,5.2-27.1,7.4l-13.6,3.5l-13.7,3.2c-9.1,2.2-18.3,4-27.4,5.9c-4.6,1-9.2,1.8-13.8,2.6
						c-4.6,0.8-9.2,1.7-13.8,2.5c-18.4,3-36.9,5.8-55.5,7.7c-18.5,2.2-37.1,3.5-55.7,4.7c-18.6,0.9-37.1,1.6-55.6,1.5
						c-18.5,0.1-37-0.5-55.4-1.3c-18.4-1-36.8-2.3-55-4.2c-4.6-0.5-9.1-0.9-13.7-1.4l-13.6-1.6l-6.8-0.8l-6.8-0.9l-13.6-1.9
						c-4.5-0.7-9-1.4-13.5-2.1c-4.5-0.7-9-1.4-13.5-2.2c-9-1.6-17.9-3.1-26.8-4.9c-35.6-6.9-70.8-15.2-105.4-25
						c-34.6-9.7-68.7-20.5-102.1-32.7c-8.3-3.1-16.7-6-25-9.3l-12.4-4.8l-12.3-4.9c-16.5-6.5-32.7-13.5-48.8-20.5
						c-64.5-28.4-126.6-60.5-186.5-95.5c-59.9-34.9-117.6-72.7-173.4-112.4c-111.6-79.6-215.6-167-314.9-258.1
						c-49.7-45.6-98.1-92.1-145.7-139.3c-23.8-23.6-47.4-47.3-70.8-71.2l-34.5-35.1c-11.5-11.6-22.9-23.2-34.4-34.7
						c-11.5-11.6-23-22.9-34.5-34.3c-5.7-5.7-11.6-11.3-17.3-16.9c-5.8-5.6-11.6-11.3-17.4-16.8c-11.6-11.1-23.3-22.3-35-33.1
						c-5.9-5.5-11.7-11-17.6-16.4l-17.7-16.1c-5.9-5.4-11.8-10.7-17.8-16c-6-5.3-11.9-10.6-17.9-15.8l-18-15.5l-9-7.8l-9.1-7.6
						l-18.2-15.2l-18.4-14.8l-9.2-7.4c-3.1-2.5-6.2-4.8-9.3-7.2l-18.7-14.4c-3.1-2.4-6.3-4.7-9.4-7.1l-9.4-7l-9.4-7
						c-1.6-1.2-3.1-2.4-4.7-3.5l-4.8-3.4l-19.1-13.6l-4.8-3.4c-1.6-1.1-3.2-2.2-4.8-3.3l-9.7-6.5l-9.7-6.5c-3.2-2.2-6.4-4.4-9.7-6.5
						l-19.7-12.5c-3.3-2.1-6.5-4.2-9.8-6.3l-10-6l-19.9-12c-53.5-31.2-108.8-58.6-165.7-81.5c-113.9-45.6-234.6-72.6-357.3-79.9
						c-49.6-2.9-87.5-45.6-84.5-95.2c2.9-49.6,45.6-87.5,95.2-84.5c1,0.1,2.1,0.1,3.1,0.2L-1617.9,3943.3z"/>
				</g>
			</g>
			<g>
				<g>
					<path class="st7" d="M-1613.4-1113.9c72.4,6.7,144.8,18.3,216.1,35.4l26.7,6.5c8.9,2.3,17.7,4.9,26.5,7.3l13.2,3.7l6.6,1.9
						c2.2,0.6,4.4,1.3,6.6,2l26.2,8.2l13.1,4.1l13,4.5l25.9,9.1c4.3,1.5,8.6,3.2,12.9,4.8l12.8,4.9l12.8,4.9
						c4.3,1.7,8.6,3.2,12.7,5.1l25.2,10.6l12.6,5.3l12.4,5.7l24.8,11.4l3.1,1.4l3.1,1.5l6.1,3l12.2,6l12.2,6l6.1,3l6,3.2l24,12.7
						c8.1,4.2,15.9,8.7,23.7,13.1c7.9,4.4,15.7,8.8,23.6,13.3l23.2,13.9l11.6,6.9c3.8,2.3,7.6,4.8,11.4,7.2l22.7,14.4
						c3.8,2.4,7.5,4.9,11.2,7.3l11.1,7.4l11.1,7.4c1.8,1.2,3.7,2.5,5.6,3.7l5.5,3.8l21.9,15.3l5.5,3.8c1.8,1.3,3.6,2.6,5.4,3.9
						l10.7,7.8l10.7,7.8c3.6,2.6,7.2,5.2,10.7,7.9l21,16c3.5,2.7,7,5.3,10.5,8l10.3,8.1l20.6,16.3l20.3,16.5l10.1,8.3l10,8.4
						l19.9,16.7l19.6,16.9c6.5,5.6,13.1,11.3,19.5,17c51.6,45.5,101.3,91.9,149.5,138.2l36,34.7l35.6,34.4
						c23,22.3,46.2,44.3,69.6,66c46.7,43.4,94.3,85.7,142.8,126.5c96.9,81.5,197.7,157.1,302,224c52.2,33.4,105.2,64.7,158.9,93.1
						c26.9,14.2,53.9,27.9,81.1,40.6c27.2,12.8,54.5,24.8,81.9,36.1c27.4,11.2,55,21.5,82.5,30.9c3.4,1.2,6.9,2.3,10.4,3.5l10.3,3.4
						l10.4,3.3c3.5,1.1,6.9,2.2,10.4,3.2l10.4,3.1c3.4,1.1,6.9,2,10.4,3c3.5,1,6.9,2,10.4,2.9l10.4,2.8l5.2,1.4l5.2,1.3l10.4,2.6
						c3.5,0.9,6.9,1.6,10.4,2.5c3.5,0.8,6.9,1.7,10.4,2.4c6.9,1.5,13.8,3.1,20.7,4.5l10.3,2.1l10.3,1.9c27.6,5.2,55,9.1,82.3,11.7
						c6.8,0.7,13.6,1.2,20.5,1.8c3.4,0.3,6.8,0.5,10.2,0.7l10.2,0.6c13.6,0.6,27.1,1.1,40.6,1c13.5,0.1,26.9-0.4,40.2-1
						c13.3-0.8,26.6-1.7,39.8-3.2c13.2-1.3,26.3-3.3,39.4-5.3l9.8-1.7c3.2-0.6,6.5-1.1,9.7-1.8c6.5-1.3,13-2.5,19.4-4.1
						c25.7-5.8,51.2-12.8,76.1-21.6c25-8.7,49.6-18.7,73.7-30.2l2.3-1.1l2.3-1.1l4.5-2.2l9-4.4l8.9-4.7l4.5-2.3
						c1.5-0.8,3-1.5,4.5-2.4c11.8-6.5,23.6-13.2,35.2-20.3c46.5-28.3,91.1-61.8,133.5-99.5c21.2-18.8,41.9-38.7,62-59.5
						c20.1-20.8,39.7-42.4,58.8-64.8c19-22.4,37.5-45.7,55.4-69.5l6.7-9c2.2-3,4.5-6,6.7-9l13.2-18.2c8.6-12.3,17.4-24.6,25.8-37.1
						c4.2-6.3,8.5-12.5,12.6-18.9l12.5-19l26.4-41.5c19.9-30.9,40.8-61.1,62.7-90.6c21.9-29.4,44.9-57.9,68.8-85.7
						c23.9-27.7,48.6-54.6,74.2-80.6c102.5-103.8,218-193.2,341.6-267.1c123.6-74.1,255.5-132.5,391.5-176.2
						c136.1-43.4,276.5-71.8,418.1-85c35.4-3.3,70.9-5.5,106.4-7l13.3-0.5c4.4-0.2,8.9-0.3,13.3-0.4l26.6-0.5
						c17.8-0.1,35.5-0.3,53.3,0.1c71.1,0.9,142,5.9,212.6,14.3c68.8,8.3,137.9,19,207.2,33.1c69.3,14.1,138.8,31.8,208,54.2
						c77.4,25.1,119.8,108.2,94.7,185.6c-25.1,77.4-108.2,119.8-185.6,94.7c-0.7-0.2-2.1-0.7-2.8-0.9
						c-55.5-19.2-113.5-34.5-173-46.8c-59.5-12.2-120.6-21.4-182.3-28.4c-30-3.3-60.2-5.8-90.3-7.5l-22.6-1.1l-22.7-0.7l-5.7-0.2
						l-5.7-0.1l-11.3-0.2l-11.3-0.2l-11.3,0c-15.1-0.1-30.2,0.3-45.3,0.6l-22.6,0.8c-3.8,0.1-7.5,0.3-11.3,0.5l-11.3,0.6
						c-3.8,0.2-7.5,0.4-11.3,0.6l-11.3,0.8c-7.5,0.5-15.1,1-22.6,1.7c-7.5,0.7-15,1.3-22.6,2l-22.5,2.3c-30,3.3-59.9,7.4-89.7,12.3
						l-22.3,3.8l-22.2,4.2l-5.6,1l-5.5,1.1l-11.1,2.3l-11.1,2.3l-11,2.5c-58.9,13-116.8,29.4-173.7,48.7
						c-28.4,9.7-56.5,20.3-84.3,31.5l-10.4,4.3l-5.2,2.1l-5.2,2.2l-20.6,8.9l-20.5,9.2c-3.4,1.5-6.8,3.1-10.2,4.7l-10.1,4.8
						c-27,12.9-53.6,26.4-79.8,40.7c-26.2,14.3-51.8,29.5-77,45.3c-100.7,63.2-193,138.3-273.5,223.5
						c-40.2,42.6-77.4,87.7-111.3,134.9c-16.9,23.7-32.9,47.9-48.1,72.5l-25.8,42.2c-4.7,7.5-9.4,15-14.2,22.5
						c-4.7,7.5-9.6,14.9-14.4,22.4c-38.7,59.6-81,117.7-127.1,173.8c-23.1,28-47.3,55.5-72.6,82.3c-25.3,26.8-51.7,52.8-79.4,78
						c-55.3,50.3-115.7,96.9-181.2,137.5c-16.3,10.2-33.1,19.9-50,29.3c-2.1,1.2-4.2,2.3-6.4,3.5l-6.4,3.4l-12.9,6.8l-13,6.6
						l-6.5,3.3l-3.3,1.6l-3.3,1.6c-35.1,16.9-71.4,32-108.4,45.1c-4.6,1.7-9.3,3.2-13.9,4.8l-14,4.6l-14.1,4.3
						c-4.7,1.4-9.4,2.9-14.1,4.2c-9.5,2.6-18.9,5.4-28.5,7.7l-14.3,3.6l-14.4,3.3c-9.6,2.3-19.2,4.1-28.9,6.1
						c-4.8,1-9.7,1.8-14.5,2.7c-4.8,0.9-9.7,1.8-14.5,2.6c-19.4,3.1-38.8,6-58.3,8c-19.5,2.2-39,3.6-58.5,4.8
						c-19.5,0.9-39,1.6-58.4,1.5c-4.8,0-9.7,0-14.5-0.1l-14.5-0.3l-7.3-0.2l-7.2-0.3L758,558c-19.2-1.2-38.4-2.5-57.5-4.6
						c-4.8-0.5-9.5-1-14.3-1.6l-14.2-1.8l-7.1-0.9l-7.1-1l-14.1-2.1c-4.7-0.7-9.4-1.5-14-2.3c-4.7-0.8-9.4-1.5-14-2.4
						c-9.3-1.7-18.6-3.4-27.8-5.3l-13.9-2.8l-13.8-3.1c-9.2-2-18.3-4.3-27.4-6.4c-4.6-1.1-9.1-2.3-13.6-3.5
						c-4.5-1.2-9.1-2.3-13.5-3.5l-13.5-3.7l-6.7-1.9l-6.7-2c-35.6-10.4-70.7-22.1-104.9-34.9c-34.3-12.9-67.9-26.8-100.8-41.6
						c-32.9-14.9-65.2-30.7-96.8-47.3c-4-2.1-7.9-4.1-11.8-6.2l-11.8-6.3c-7.8-4.2-15.6-8.5-23.4-12.8
						c-15.5-8.7-30.9-17.5-46.1-26.5C22.4,297.7-36.2,259.2-93.1,219.1c-28.4-20.1-56.3-40.6-83.9-61.5c-13.8-10.4-27.4-21-41-31.6
						c-13.6-10.6-27-21.3-40.4-32.1C-311.9,50.7-364,6.4-415-38.9c-51-45.3-100.8-91.4-149.6-138.3c-24.4-23.4-48.6-47-72.5-70.8
						l-34.9-34.7c-11.5-11.4-23.1-22.9-34.6-34.1c-11.5-11.4-23-22.5-34.6-33.7c-5.8-5.6-11.5-11.1-17.3-16.6
						c-5.8-5.5-11.5-11.1-17.3-16.5c-11.5-10.9-23.1-21.8-34.7-32.4c-5.8-5.3-11.6-10.7-17.4-16l-17.5-15.7
						c-5.8-5.3-11.7-10.4-17.6-15.6l-17.6-15.4l-17.7-15.1l-8.9-7.5l-8.9-7.4l-17.9-14.7l-18-14.3l-9-7.2c-3-2.4-6.1-4.7-9.1-7
						l-18.2-13.9c-48.7-36.6-98.6-70.2-149.9-100.2l-19.4-10.9c-6.5-3.6-12.9-7.4-19.5-10.7l-19.6-10.3l-4.9-2.6l-5-2.4l-9.9-4.8
						l-9.9-4.8l-5-2.4l-2.5-1.2l-2.5-1.1l-20-9.1l-10-4.5l-10.1-4.2l-20.3-8.4c-108.5-43.3-222.8-69-340.1-76.7
						c-81.2-5.3-142.7-75.5-137.4-156.7c5.3-81.2,75.5-142.7,156.7-137.4c1.1,0.1,2.1,0.1,3.2,0.2L-1613.4-1113.9z"/>
				</g>
			</g>
			<polyline class="st9" points="-2311.9,3744.9 104.5,3312.5 1738,-1086.1 			"/>
			<line class="st9" x1="863" y1="6270.1" x2="1640.5" y2="4176.5"/>
			<line class="st9" x1="2012.7" y1="3865.7" x2="4308.1" y2="3455"/>
			<g>
				<g>
					<path class="st8" d="M-1617.9-1056.7c69.7,6.9,139.1,18.2,207.4,34.8c68.3,16.5,135.4,38,200.4,64.4
						c64.9,26.5,127.7,57.6,188,92.3c60.1,35,117.7,73.3,172.9,114.2l20.6,15.5c3.4,2.6,6.9,5.1,10.2,7.8l10.1,7.9l20.2,15.8
						l19.9,16.1l10,8l9.8,8.1l19.6,16.3l19.4,16.5c6.4,5.5,12.9,11,19.2,16.6l19.1,16.7c6.4,5.6,12.6,11.2,18.9,16.8
						c12.6,11.2,25,22.5,37.4,33.8c24.7,22.6,49.2,45.4,73.4,68.1l36.2,34.1l36,33.9c23.6,22.2,47.3,44,71.3,65.6
						c24,21.5,48.2,42.8,72.7,63.7c24.4,20.9,49.1,41.5,74,61.7C-151.6-147.4-48.4-72.1,57.9-4.4C111.1,29.4,165,61.3,219.7,90.8
						c54.7,29.5,110.2,56.5,166.4,80.3c14.1,5.9,28.2,11.7,42.3,17.2l10.6,4.1l10.6,4c7.1,2.7,14.2,5.2,21.3,7.8
						c28.4,10.2,57,19.3,85.7,27.4c28.7,8.1,57.6,15,86.4,20.6c7.2,1.5,14.4,2.7,21.7,4c3.6,0.7,7.2,1.2,10.8,1.8
						c3.6,0.6,7.2,1.2,10.8,1.7l10.8,1.5l5.4,0.8l5.4,0.7l10.8,1.3c3.6,0.4,7.2,0.8,10.8,1.1c14.4,1.6,28.9,2.6,43.3,3.4
						c14.4,0.7,28.8,1.2,43.1,1.2c14.4,0.1,28.6-0.4,42.9-1c14.2-0.9,28.5-1.8,42.6-3.4c14.1-1.4,28.2-3.5,42.2-5.6l10.5-1.8
						c3.5-0.6,7-1.2,10.4-1.9c6.9-1.4,13.9-2.7,20.8-4.3l10.4-2.3l10.3-2.6c6.9-1.6,13.7-3.6,20.5-5.5c3.4-0.9,6.8-2,10.2-3
						l10.2-3.1l10.1-3.3c3.4-1.1,6.7-2.2,10.1-3.4c107.3-36.9,206.7-99.4,295.2-178.6c44.3-39.6,86.1-83.2,125.3-129.7
						c19.6-23.3,38.6-47.3,57-71.9l6.9-9.3c2.3-3.1,4.6-6.2,6.8-9.3l13.5-18.8c8.8-12.7,17.7-25.3,26.3-38.2
						c4.3-6.4,8.7-12.8,12.9-19.4l12.7-19.6l26.3-41.6c19.1-30,39.3-59.4,60.4-88c21.2-28.6,43.4-56.3,66.4-83.3l8.7-10.1
						c2.9-3.4,5.9-6.6,8.8-10l8.8-9.9l4.4-5l4.5-4.9c6-6.5,12-13,18.1-19.5l18.4-19.1c99.2-101.1,211.2-188.5,331.6-260.7
						c120.3-72.4,248.9-129.6,381.7-172.1c132.9-42.3,270.1-69.6,408.4-81.9c34.6-3.1,69.2-5.1,103.9-6.3l13-0.4
						c4.3-0.1,8.7-0.3,13-0.3l26-0.4c17.3,0,34.7,0,52,0.4c69.3,1.3,138.5,6.8,207.2,15.6c33.8,4.5,67.5,9.6,101.3,15.4l12.7,2.2
						l12.6,2.3l12.6,2.3c4.2,0.8,8.4,1.6,12.6,2.5c8.4,1.7,16.8,3.3,25.3,5.1c8.4,1.8,16.8,3.5,25.2,5.4
						c33.6,7.5,67.2,15.8,100.7,25.3c33.4,9.4,66.7,20,99.7,31.7c46.8,16.7,71.2,68.2,54.5,115c-16.2,45.5-65.4,69.9-111.2,55.8
						l-0.6-0.2c-117.5-36.3-241.8-57.5-367.9-70.1c-123.9-12.3-248.9-11.3-372.2,2.8c-30.8,3.6-61.5,7.9-92.1,13l-22.9,4l-22.8,4.4
						l-5.7,1.1l-5.7,1.2l-11.4,2.4l-11.4,2.4l-11.3,2.6c-30.2,6.8-60.2,14.3-90,22.8c-29.8,8.4-59.3,17.6-88.5,27.6
						c-29.2,10-58.1,20.9-86.7,32.4l-10.7,4.4l-5.4,2.2l-5.3,2.3l-21.2,9.1l-21.1,9.4c-3.5,1.5-7,3.2-10.5,4.9l-10.5,4.9
						c-27.8,13.2-55.2,27.1-82.2,41.8c-27,14.7-53.4,30.2-79.5,46.5c-104,64.9-199.7,142.1-283.5,229.9
						c-20.9,21.9-41.1,44.6-60.4,67.9c-19.4,23.3-38,47.1-55.6,71.6c-17.7,24.5-34.5,49.6-50.4,75.1l-25.9,42.1
						c-4.6,7.3-9.3,14.6-13.9,22c-2.3,3.6-4.6,7.3-7,11l-7.2,10.9c-9.5,14.6-19.3,28.9-29.2,43.3L1748-33.7
						c-2.5,3.6-5.1,7.1-7.7,10.6l-7.7,10.6c-20.7,28.2-42.2,56-64.7,83.2c-45.1,54.3-94,106.5-147.4,154.9
						c-53.4,48.4-111.4,93-174.1,131.8c-15.6,9.7-31.6,19-47.8,28c-2,1.1-4,2.2-6.1,3.3l-6.1,3.3l-12.3,6.5l-12.4,6.2l-6.2,3.1
						l-3.1,1.6l-3.1,1.5c-33.5,16.1-68,30.5-103.3,42.9c-4.4,1.6-8.8,3.1-13.3,4.5l-13.3,4.4l-13.4,4.1c-4.5,1.3-8.9,2.8-13.5,4
						c-9,2.5-18,5.1-27.1,7.4l-13.6,3.5l-13.7,3.1c-9.1,2.2-18.3,3.9-27.5,5.8c-4.6,1-9.2,1.7-13.8,2.6c-4.6,0.8-9.2,1.7-13.8,2.5
						c-18.5,3-37,5.7-55.5,7.6c-18.5,2.1-37.1,3.5-55.7,4.6c-18.6,0.9-37.1,1.5-55.7,1.4c-18.5,0.1-37-0.5-55.4-1.4
						c-18.4-1-36.8-2.3-55-4.2c-4.6-0.5-9.1-0.9-13.7-1.4l-13.6-1.6l-6.8-0.8l-6.8-0.9l-13.6-1.9c-4.5-0.7-9-1.4-13.5-2.1
						c-4.5-0.7-9-1.4-13.5-2.2c-8.9-1.6-17.9-3.1-26.8-4.9c-35.6-6.9-70.8-15.3-105.4-25c-34.6-9.7-68.7-20.6-102.1-32.7
						c-8.3-3.1-16.7-6-25-9.3l-12.4-4.8l-12.3-4.9c-16.5-6.5-32.7-13.5-48.8-20.5c-64.5-28.4-126.6-60.5-186.5-95.5
						C44.9,260.3-12.7,222.5-68.5,182.7c-111.6-79.6-215.6-167-314.9-258.1c-49.7-45.6-98.1-92.1-145.7-139.3
						c-23.8-23.6-47.4-47.3-70.8-71.2l-34.5-35.1c-11.5-11.6-22.9-23.2-34.4-34.7c-11.5-11.6-23-22.9-34.5-34.3
						c-5.7-5.7-11.6-11.3-17.3-16.9c-5.8-5.6-11.6-11.3-17.4-16.8c-11.6-11.1-23.3-22.3-35-33.1c-5.9-5.5-11.7-11-17.6-16.4
						l-17.7-16.1c-5.9-5.4-11.8-10.7-17.8-16c-6-5.3-11.9-10.6-17.9-15.8l-18-15.5l-9-7.8l-9.1-7.6l-18.2-15.2l-18.4-14.8l-9.2-7.4
						c-3.1-2.5-6.2-4.8-9.3-7.2l-18.7-14.4c-3.1-2.4-6.3-4.7-9.4-7.1l-9.4-7l-9.4-7c-1.6-1.2-3.1-2.4-4.7-3.5l-4.8-3.4l-19.1-13.6
						l-4.8-3.4c-1.6-1.1-3.2-2.2-4.8-3.3l-9.7-6.5l-9.7-6.5c-3.2-2.2-6.4-4.4-9.7-6.5l-19.7-12.5c-3.3-2.1-6.5-4.2-9.8-6.3l-10-6
						l-19.9-12c-53.5-31.2-108.8-58.6-165.7-81.5c-113.9-45.6-234.6-72.6-357.3-79.9c-49.6-2.9-87.5-45.6-84.5-95.2
						c2.9-49.6,45.6-87.5,95.2-84.5c1,0.1,2.1,0.1,3.1,0.2L-1617.9-1056.7z"/>
				</g>
			</g>
			<line class="st10" x1="1153" y1="2684" x2="2858" y2="653"/>
			<circle class="st9" cx="1738" cy="3915" r="279"/>
			<circle class="st10" cx="-725" cy="1241" r="197"/>
			<line class="st9" x1="105" y1="3312" x2="1453.1" y2="4681.1"/>
			<polyline class="st9" points="-528,1307 697.5,1715.8 1618.6,3662.8 			"/>
			<line class="st10" x1="-2142" y1="653" x2="-907" y2="1165.5"/>
			<polyline class="st10" points="4093,1165.5 2858,653 1067,720 			"/>
			<line class="st10" x1="-697.9" y1="1436.1" x2="-424.1" y2="3407.1"/>
			<path class="st8" d="M1676,2483c23.1,88.7,168,117,275,65c92.5-44.9,135-163,221-209s332-109,264-220s-362-239-478-114
				c-66.4,71.6-95,232-175,291S1652,2391,1676,2483z"/>
		</g>
		<g>
			<line class="st3" x1="2632.9" y1="3925.2" x2="2767" y2="4334"/>
			<line class="st3" x1="-1358.7" y1="3846.3" x2="-1406" y2="4303"/>
			<line class="st9" x1="104.5" y1="3312.5" x2="1738" y2="-1086.1"/>
		</g>
	</g>
	<g style="clip-path:url(#SVGID_00000106126350856935397250000012140478169899652529_);">
		<rect x="3500" class="st1" width="5000" height="5000"/>
		<g>
			<polygon class="st2" points="4523,3026 4439,2410 3700,2500 3803,3033 			"/>
			<path class="st2" d="M4400,4460c648.5,613.5,1335,1023,1896,644l163-439l-355-338l-413,378l-976-486L4400,4460z"/>
			<path class="st2" d="M4368-447c648.5,613.5,1309,980,1882,694l184-515l-344-325l-399,298l-974-426L4368-447z"/>
			<circle class="st2" cx="6738" cy="3915" r="237"/>
			<circle class="st2" cx="4275" cy="1241" r="180"/>
			<polygon class="st2" points="6153,2684 6433,3268 6942,3145 6819,2875 7753,2276 7178,1463 			"/>
		</g>
		<g>
			<polyline class="st3" points="6104,4326.6 5671,4643 4699,4219 4437,4440 			"/>
			<line class="st3" x1="7177.7" y1="1463.3" x2="8670" y2="3569"/>
			<polyline class="st3" points="2177.7,1463.3 3670,3569 3565,4580 4323.9,4935.7 			"/>
			<polyline class="st3" points="7753,2276 6819,2875 6942,3145 6433,3268 			"/>
			<g class="st4">
				<line class="st5" x1="9701" y1="159" x2="9701" y2="1993"/>
				<line class="st5" x1="10016" y1="832" x2="10016" y2="1993"/>
				<line class="st5" x1="10016" y1="159" x2="10016" y2="702"/>
				<line class="st5" x1="10331" y1="159" x2="10331" y2="1993"/>
				<rect x="9883" y="702" class="st5" width="266" height="130"/>
				<line class="st5" x1="10149" y1="767" x2="10331" y2="767"/>
				<line class="st5" x1="9701" y1="957" x2="10331" y2="957"/>
				<line class="st5" x1="9883" y1="767" x2="9701" y2="767"/>
				<line class="st5" x1="9701" y1="1147" x2="10331" y2="1147"/>
				<line class="st5" x1="9701" y1="1337" x2="10331" y2="1337"/>
				<line class="st5" x1="9701" y1="1525" x2="10331" y2="1525"/>
				<line class="st5" x1="9701" y1="1715" x2="10331" y2="1715"/>
				<line class="st5" x1="9701" y1="577" x2="10331" y2="577"/>
			</g>
			<g class="st4">
				<line class="st5" x1="7289.4" y1="1331.2" x2="8700" y2="2503.3"/>
				<line class="st5" x1="8008.3" y1="1519.1" x2="8901.3" y2="2261.1"/>
				<line class="st5" x1="7490.7" y1="1088.9" x2="7908.4" y2="1436"/>
				<line class="st5" x1="7692" y1="846.7" x2="9102.6" y2="2018.8"/>
				
					<rect x="7825.3" y="1412.5" transform="matrix(0.6391 -0.7691 0.7691 0.6391 1735.7081 6654.106)" class="st5" width="266" height="130"/>
				<line class="st5" x1="8043.3" y1="1375.2" x2="8159.7" y2="1235.2"/>
				<polyline class="st5" points="7903.2,1841.2 8305.8,1356.7 8369,859 				"/>
				<polyline class="st5" points="7873.3,1579.8 7757,1719.8 7490.7,1905 				"/>
				<line class="st5" x1="8195.4" y1="2084.1" x2="8598.1" y2="1599.5"/>
				<line class="st5" x1="8486.1" y1="2325.7" x2="8888.8" y2="1841.1"/>
				<line class="st5" x1="7610.9" y1="1598.4" x2="8013.5" y2="1113.8"/>
			</g>
			<g class="st4">
				<polyline class="st5" points="2289.4,1331.2 3700,2503.3 4439,2422 				"/>
				<line class="st5" x1="3008.3" y1="1519.1" x2="3836.7" y2="2207.5"/>
				<line class="st5" x1="2490.7" y1="1088.9" x2="2908.4" y2="1436"/>
				<line class="st5" x1="2692" y1="846.7" x2="4412" y2="2276"/>
				
					<rect x="2825.3" y="1412.5" transform="matrix(0.6391 -0.7691 0.7691 0.6391 -68.7425 2808.5288)" class="st5" width="266" height="130"/>
				<line class="st5" x1="3043.3" y1="1375.2" x2="3159.7" y2="1235.2"/>
				<line class="st5" x1="2903.2" y1="1841.2" x2="3305.8" y2="1356.7"/>
				<line class="st5" x1="2873.3" y1="1579.8" x2="2757" y2="1719.8"/>
				<line class="st5" x1="3195.4" y1="2084.1" x2="3598.1" y2="1599.5"/>
				<line class="st5" x1="3486.1" y1="2325.7" x2="3888.8" y2="1841.1"/>
				<line class="st5" x1="2610.9" y1="1598.4" x2="3013.5" y2="1113.8"/>
			</g>
			<polyline class="st3" points="3899,3528 3700,2503 3954,2229 			"/>
			<circle class="st6" cx="3889" cy="2251" r="68"/>
			<polyline class="st3" points="4394,2095 3953.5,2229.5 3582.1,1488.3 			"/>
			<line class="st3" x1="3802.8" y1="3032.6" x2="4523" y2="3026"/>
			<line class="st3" x1="6942" y1="3145" x2="8323.8" y2="3080.4"/>
			<line class="st3" x1="5902" y1="1165" x2="6935" y2="1752.5"/>
			<polyline class="st3" points="3166.2,2858.1 3700,2500 4439,2410 5305,2772 6153,2684 7858,653 8076,275 7580,-1236 7514,-1882 
							"/>
			<polyline class="st3" points="9439,2410 8700,2500 8166.2,2858.1 			"/>
			<line class="st3" x1="4576" y1="3407" x2="4699" y2="4219"/>
			<polyline class="st3" points="3645,3807 4637.5,3865.7 5440,3663 			"/>
			<polyline class="st3" points="5185,4431 5598,3813 6541,3455 			"/>
			<polyline class="st3" points="7514,3118 7580,3764 8076,5275 			"/>
			<line class="st3" x1="5338" y1="390" x2="5361" y2="1060"/>
			<line class="st3" x1="4093" y1="1303" x2="2479" y2="1888.4"/>
			<line class="st3" x1="9093" y1="1303" x2="7479" y2="1888.4"/>
			<line class="st3" x1="5902" y1="2728" x2="5811.2" y2="3732"/>
			<line class="st3" x1="5270" y1="2931" x2="5863" y2="3159.4"/>
			<polyline class="st3" points="6793.5,1672 7399,670 6670,69 			"/>
			<polyline class="st3" points="6541,702 7178,1036 7312,1303.4 			"/>
			<polyline class="st3" points="9093,149 8324,859 8075.6,1672 8360.1,2728 			"/>
			<polyline class="st3" points="3075.6,1672 3324,859 4472,-201 			"/>
			<polyline class="st3" points="3075.6,6672 3324,5859 4472,4799 			"/>
			<line class="st3" x1="4078" y1="162.8" x2="5811" y2="1375"/>
			<polyline class="st3" points="5024,824.4 4865,1438 5105,2688.4 4830,3362 			"/>
			<line class="st3" x1="8076" y1="275" x2="8802.6" y2="417.1"/>
			<polyline class="st3" points="3076,275 3802.6,417.1 3827,1060 			"/>
			<line class="st3" x1="3565" y1="4580" x2="2907" y2="4842"/>
			<polyline class="st3" points="8565,4580 7931,4833 6942,4643 			"/>
			<line class="st3" x1="5361" y1="824.4" x2="6067" y2="720"/>
		</g>
		<g>
			<g>
				<g>
					<path class="st7" d="M3386.6,3886.1c18.1,1.7,36.2,3.6,54.3,5.9l13.6,1.8c4.5,0.6,9,1.3,13.5,2l27.1,4.1c9,1.2,18,3.1,27,4.7
						l27,5c9,1.9,17.9,3.8,26.8,5.8l13.4,2.9l6.7,1.5l6.7,1.7c71.2,17.1,141.3,39.6,209,67.1l25.2,10.6c4.2,1.8,8.4,3.5,12.6,5.4
						l12.4,5.7l24.9,11.3l24.5,12l12.2,6c4.1,2,8,4.2,12.1,6.3l24.1,12.6l3,1.6l3,1.6l5.9,3.3l11.8,6.6c7.9,4.4,15.8,8.7,23.5,13.4
						l23.2,13.7c3.9,2.3,7.7,4.7,11.5,7l11.4,7.1c15.3,9.4,30.1,19.3,45.1,29.1c1.9,1.2,3.7,2.4,5.6,3.7l5.5,3.8l11,7.6l11,7.6
						c1.8,1.3,3.7,2.5,5.5,3.8l5.4,3.9l21.6,15.5c1.8,1.3,3.6,2.6,5.4,3.9l5.3,4l10.6,7.9l10.6,7.9c1.8,1.3,3.5,2.6,5.3,4l5.2,4
						l20.8,16.1c3.5,2.7,6.9,5.4,10.3,8.1l10.2,8.2c6.8,5.5,13.7,10.9,20.4,16.5l20.1,16.6c3.4,2.8,6.7,5.6,10,8.4l9.9,8.4
						c13.3,11.2,26.2,22.5,39.2,33.9c25.7,22.8,51.2,45.7,76,68.8l9.4,8.6l9.3,8.7l18.5,17.3l18.3,17.4l9.1,8.7l9,8.7l36,34.7
						l35.6,34.4c23,22.3,46.2,44.3,69.6,66c46.7,43.4,94.3,85.7,142.8,126.5c96.9,81.5,197.7,157.1,302,224
						c52.2,33.4,105.2,64.7,158.9,93.1c26.9,14.2,53.9,27.9,81.1,40.6c27.2,12.8,54.5,24.8,81.9,36.1c27.4,11.2,55,21.5,82.5,30.9
						c3.4,1.2,6.9,2.3,10.4,3.5l10.3,3.4l10.4,3.3c3.5,1.1,6.9,2.2,10.4,3.2l10.4,3.1c3.4,1.1,6.9,2,10.4,3c3.5,1,6.9,2,10.4,2.9
						l10.4,2.8l5.2,1.4l5.2,1.3l10.4,2.6c3.5,0.9,6.9,1.6,10.4,2.5c3.5,0.8,6.9,1.7,10.4,2.4c6.9,1.5,13.8,3.1,20.7,4.5l10.3,2.1
						l10.3,1.9c27.6,5.2,55,9.1,82.3,11.7c13.7,1.4,27.3,2.3,40.9,3c13.6,0.6,27.1,1.1,40.6,1c13.5,0.1,26.9-0.4,40.2-1
						c13.3-0.8,26.6-1.7,39.8-3.2c13.2-1.3,26.3-3.3,39.4-5.3l9.8-1.7c3.2-0.6,6.5-1.1,9.7-1.8c6.5-1.3,13-2.5,19.4-4.1
						c25.7-5.8,51.2-12.8,76.1-21.6c25-8.7,49.6-18.7,73.7-30.2l2.3-1.1l2.3-1.1l4.5-2.2l9-4.4l8.9-4.7l4.5-2.3
						c1.5-0.8,3-1.5,4.5-2.4c11.8-6.5,23.6-13.2,35.2-20.3c46.5-28.3,91.1-61.8,133.5-99.5c21.2-18.8,41.9-38.7,62-59.5
						c20.1-20.8,39.7-42.4,58.8-64.8c19-22.4,37.5-45.7,55.4-69.5l6.7-9c2.2-3,4.5-6,6.7-9l13.2-18.2c8.6-12.3,17.4-24.6,25.8-37.1
						c4.2-6.2,8.5-12.5,12.6-18.9l12.5-19l26.4-41.5c19.9-30.9,40.8-61.1,62.7-90.6c21.9-29.4,44.9-57.9,68.8-85.7
						c23.9-27.7,48.6-54.6,74.2-80.6c102.5-103.8,218-193.2,341.6-267.1c123.6-74.1,255.5-132.5,391.5-176.2
						c136.1-43.4,276.5-71.8,418.1-85c35.4-3.3,70.9-5.5,106.4-7l13.3-0.5c4.4-0.2,8.9-0.3,13.3-0.4l26.6-0.5
						c17.8-0.1,35.5-0.3,53.3,0.1c71.1,0.9,142,5.9,212.6,14.3c68.8,8.3,137.9,19,207.2,33.1c69.3,14.1,138.8,31.8,208,54.2
						l-93.7,279.4c-55.5-19.2-113.5-34.5-173-46.8c-59.5-12.2-120.6-21.4-182.3-28.4c-30-3.3-60.2-5.8-90.3-7.5l-22.6-1.1l-22.7-0.7
						l-5.7-0.2l-5.7-0.1l-11.3-0.2l-11.3-0.2l-11.3,0c-15.1-0.1-30.2,0.3-45.3,0.6l-22.6,0.8c-3.8,0.1-7.5,0.3-11.3,0.5l-11.3,0.6
						c-3.8,0.2-7.5,0.4-11.3,0.6l-11.3,0.8c-7.5,0.5-15.1,1-22.6,1.7c-7.5,0.7-15,1.3-22.6,2l-22.5,2.3c-30,3.3-59.9,7.4-89.7,12.3
						l-22.3,3.8l-22.2,4.2l-5.6,1l-5.5,1.1l-11.1,2.3l-11.1,2.3l-11,2.5c-58.9,13-116.8,29.4-173.7,48.7
						c-28.4,9.7-56.5,20.3-84.3,31.5l-10.4,4.3l-5.2,2.1l-5.2,2.2l-20.6,8.9l-20.5,9.2c-3.4,1.5-6.8,3.1-10.2,4.7l-10.1,4.8
						c-27,12.9-53.6,26.4-79.8,40.7c-26.2,14.3-51.8,29.5-77,45.3c-100.7,63.2-193,138.3-273.5,223.5
						c-40.2,42.6-77.4,87.7-111.3,134.9c-16.9,23.7-32.9,47.9-48.1,72.5l-25.8,42.2c-4.7,7.5-9.4,15-14.2,22.5
						c-4.7,7.5-9.6,14.9-14.4,22.4c-38.7,59.6-81,117.7-127.1,173.8c-23.1,28-47.3,55.5-72.6,82.3c-25.3,26.8-51.7,52.8-79.4,78
						c-55.3,50.3-115.7,96.9-181.2,137.5c-16.3,10.2-33.1,19.9-50,29.3c-2.1,1.2-4.2,2.3-6.4,3.5l-6.4,3.4l-12.9,6.8l-13,6.6
						l-6.5,3.3l-3.3,1.6l-3.3,1.6c-35.1,16.9-71.4,32-108.4,45.1c-4.6,1.7-9.3,3.2-13.9,4.8l-14,4.6l-14.1,4.3
						c-4.7,1.4-9.4,2.9-14.1,4.2c-9.5,2.6-18.9,5.4-28.5,7.7l-14.3,3.6l-14.4,3.3c-9.6,2.3-19.2,4.1-28.9,6.1
						c-4.8,1-9.7,1.8-14.5,2.7c-4.8,0.9-9.7,1.8-14.5,2.6c-19.4,3.1-38.8,6-58.3,8c-19.5,2.2-39,3.6-58.5,4.8
						c-19.5,0.9-39,1.6-58.4,1.5c-4.8,0-9.7,0-14.5-0.1l-14.5-0.3l-7.3-0.2l-7.2-0.3l-14.5-0.6c-19.2-1.2-38.4-2.5-57.5-4.6
						c-4.8-0.5-9.5-1-14.3-1.6l-14.2-1.8l-7.1-0.9l-7.1-1l-14.1-2.1c-4.7-0.7-9.4-1.5-14-2.3c-4.7-0.8-9.4-1.5-14-2.4
						c-9.3-1.7-18.6-3.4-27.8-5.3l-13.9-2.8l-13.8-3.1c-9.2-2-18.3-4.3-27.4-6.4c-4.6-1.1-9.1-2.3-13.6-3.5
						c-4.5-1.2-9.1-2.3-13.5-3.5l-13.5-3.7l-6.7-1.9l-6.7-2c-35.6-10.4-70.7-22.1-104.9-34.9c-34.3-12.9-67.9-26.8-100.8-41.6
						c-32.9-14.9-65.2-30.7-96.8-47.3c-4-2.1-7.9-4.1-11.8-6.2l-11.8-6.3c-7.8-4.2-15.6-8.5-23.4-12.8
						c-15.5-8.7-30.9-17.5-46.1-26.5c-60.9-35.9-119.5-74.4-176.3-114.5c-28.4-20.1-56.3-40.6-83.9-61.5c-13.8-10.4-27.4-21-41-31.6
						c-13.6-10.6-27-21.3-40.4-32.1c-53.6-43.1-105.7-87.5-156.6-132.7c-51-45.3-100.8-91.4-149.6-138.3
						c-24.4-23.4-48.6-47-72.5-70.8l-34.9-34.7l-17.3-17.1l-17.3-17l-8.6-8.5l-8.6-8.4l-17.3-16.8l-17.3-16.6l-8.6-8.3l-8.7-8.2
						c-23.1-22-46.3-43.2-69.6-64.2c-46.7-41.7-94.1-81.5-142.8-118.1l-9.1-6.9l-4.6-3.4c-1.5-1.1-3.1-2.2-4.6-3.3l-18.4-13.3
						l-4.6-3.3c-1.5-1.1-3.1-2.1-4.6-3.2l-9.3-6.4l-9.3-6.4l-4.6-3.2c-1.6-1.1-3.1-2.1-4.7-3.1l-18.8-12.4c-6.2-4.2-12.6-8-19-12
						l-9.5-5.9c-3.2-2-6.3-4-9.5-5.8l-19.2-11.3c-6.4-3.9-12.9-7.4-19.3-11l-9.7-5.4l-4.9-2.7l-2.4-1.4l-2.5-1.3l-19.6-10.2
						c-3.3-1.7-6.5-3.5-9.8-5.1l-9.9-4.8l-19.8-9.6l-20-9l-10-4.5c-3.4-1.4-6.8-2.8-10.1-4.2l-20.3-8.4l-2.5-1l-2.6-1l-5.1-1.9
						l-10.2-3.9l-10.2-3.9c-1.7-0.6-3.4-1.3-5.1-1.9l-5.2-1.8c-13.8-4.7-27.5-9.7-41.5-13.7c-7-2.1-13.9-4.3-20.9-6.4l-21.1-5.7
						l-10.5-2.9c-1.7-0.5-3.5-0.9-5.3-1.3l-5.3-1.3l-21.2-5l-5.3-1.3l-5.4-1.1l-10.7-2.2l-21.4-4.3l-21.6-3.6
						c-7.2-1.2-14.4-2.5-21.6-3.4l-21.7-2.9c-3.6-0.5-7.2-1-10.9-1.4l-10.9-1.2c-14.6-1.5-29.2-2.7-43.8-3.7L3386.6,3886.1z"/>
				</g>
			</g>
			<g>
				<g>
					<path class="st8" d="M3382.1,3943.3c69.8,5.6,139.5,16.2,208,32.2l25.7,6.1c8.5,2.2,17,4.6,25.5,6.9l12.7,3.5l6.4,1.8
						c2.1,0.6,4.2,1.3,6.3,1.9l25.2,7.8l12.6,3.9l12.5,4.3l24.9,8.7c4.2,1.4,8.3,3,12.4,4.6l12.3,4.7l12.3,4.8
						c4.1,1.6,8.2,3.1,12.2,4.9c65,26.7,127.7,58.3,187.8,93.4c59.9,35.5,117.3,74.3,172.3,115.5l20.5,15.6
						c3.4,2.6,6.9,5.2,10.2,7.8l10.1,7.9l20.2,15.9l19.8,16.1l9.9,8.1l9.8,8.2l19.6,16.3l19.3,16.5c6.4,5.5,12.9,11,19.2,16.6
						c51,44.4,100.4,89.9,148.9,135.3l36.3,34.1l36,33.9c23.6,22.1,47.4,44,71.4,65.5c24,21.5,48.2,42.8,72.7,63.7
						c24.4,20.9,49.1,41.5,74,61.7c99.5,80.9,202.7,156.1,309,223.9c53.2,33.8,107.1,65.8,161.8,95.3
						c54.7,29.5,110.2,56.5,166.4,80.4c14.1,5.9,28.1,11.7,42.3,17.2l10.6,4.1l10.6,4c7.1,2.7,14.2,5.2,21.3,7.8
						c28.4,10.2,57,19.3,85.7,27.4c28.7,8.1,57.6,15,86.4,20.6c7.2,1.5,14.4,2.7,21.7,4c3.6,0.7,7.2,1.2,10.8,1.8
						c3.6,0.6,7.2,1.2,10.8,1.7l10.8,1.5l5.4,0.8l5.4,0.7l10.8,1.3c3.6,0.4,7.2,0.8,10.8,1.1c14.4,1.6,28.9,2.6,43.3,3.4
						c14.4,0.7,28.8,1.2,43.1,1.2c14.4,0.1,28.6-0.4,42.9-1c14.2-0.9,28.5-1.8,42.6-3.4c14.1-1.4,28.2-3.5,42.2-5.6l10.5-1.8
						c3.5-0.6,7-1.2,10.4-1.9c6.9-1.4,13.9-2.7,20.8-4.3l10.4-2.3l10.3-2.6c6.9-1.6,13.7-3.6,20.5-5.5c3.4-0.9,6.8-2,10.2-3
						l10.2-3.1l10.1-3.3c3.4-1.1,6.7-2.2,10.1-3.4c107.3-36.9,206.7-99.4,295.2-178.6c44.3-39.6,86.1-83.2,125.3-129.7
						c19.6-23.3,38.6-47.3,57-71.9l6.9-9.3c2.3-3.1,4.6-6.1,6.8-9.3l13.5-18.8c8.8-12.7,17.7-25.3,26.3-38.2
						c4.3-6.4,8.7-12.8,12.9-19.4l12.7-19.6l26.3-41.6c19.1-30,39.3-59.4,60.4-88c21.2-28.6,43.4-56.3,66.4-83.3l8.7-10.1
						c2.9-3.4,5.9-6.6,8.8-10l8.8-9.9l4.4-5l4.5-4.9c6-6.5,12-13,18.1-19.5l18.4-19.1c99.2-101.1,211.2-188.5,331.6-260.7
						c120.3-72.4,248.9-129.6,381.7-172.1c132.9-42.3,270.1-69.6,408.4-81.9c34.6-3.1,69.2-5.1,103.9-6.3l13-0.4
						c4.3-0.1,8.7-0.3,13-0.3l26-0.4c17.3,0,34.7,0,52,0.4c69.3,1.3,138.5,6.8,207.2,15.6c33.8,4.5,67.5,9.6,101.3,15.4l12.7,2.2
						l12.6,2.3l12.6,2.3c4.2,0.8,8.4,1.6,12.6,2.5c8.4,1.7,16.8,3.3,25.3,5.1c8.4,1.8,16.8,3.5,25.2,5.4
						c33.6,7.5,67.2,15.8,100.7,25.3c33.4,9.4,66.7,20,99.7,31.7c46.8,16.7,71.2,68.2,54.5,115c-16.2,45.5-65.4,69.9-111.2,55.8
						l-0.6-0.2c-117.5-36.3-241.8-57.5-367.9-70.1c-123.9-12.3-248.9-11.3-372.2,2.8c-30.8,3.6-61.5,7.9-92.1,13l-22.9,4l-22.8,4.4
						l-5.7,1.1l-5.7,1.2l-11.4,2.4l-11.4,2.4l-11.3,2.6c-30.2,6.8-60.2,14.3-90,22.8c-29.8,8.4-59.3,17.6-88.5,27.6
						c-29.2,10-58.1,20.9-86.7,32.4l-10.7,4.4l-5.4,2.2l-5.3,2.3l-21.2,9.1l-21.1,9.4c-3.5,1.5-7,3.2-10.5,4.9l-10.5,4.9
						c-27.8,13.2-55.2,27.1-82.2,41.8c-27,14.7-53.4,30.2-79.5,46.5c-104,64.9-199.7,142.1-283.5,229.9
						c-20.9,21.9-41.1,44.6-60.4,67.9c-19.4,23.3-38,47.1-55.6,71.6c-17.7,24.5-34.5,49.6-50.4,75.1l-25.9,42.1
						c-4.6,7.3-9.3,14.6-13.9,22c-2.3,3.6-4.6,7.3-7,11l-7.2,10.9c-9.5,14.6-19.3,28.9-29.2,43.3l-15.1,21.4
						c-2.5,3.6-5.1,7.1-7.7,10.6l-7.7,10.6c-20.7,28.2-42.2,56-64.7,83.2c-45.1,54.3-94,106.5-147.4,154.9
						c-53.4,48.4-111.4,93-174.1,131.8c-15.6,9.7-31.6,19-47.8,28c-2,1.1-4,2.2-6.1,3.3l-6.1,3.3l-12.3,6.5l-12.4,6.2l-6.2,3.1
						l-3.1,1.6l-3.2,1.5c-33.5,16.1-68,30.5-103.3,42.9c-4.4,1.6-8.8,3.1-13.3,4.5l-13.3,4.4l-13.4,4.1c-4.5,1.3-8.9,2.8-13.5,4
						c-9,2.5-18,5.1-27.1,7.4l-13.6,3.5l-13.7,3.1c-9.1,2.2-18.3,3.9-27.5,5.8c-4.6,1-9.2,1.7-13.8,2.6c-4.6,0.8-9.2,1.7-13.8,2.5
						c-18.5,3-37,5.7-55.5,7.6c-18.5,2.1-37.1,3.5-55.7,4.6c-18.6,0.9-37.1,1.5-55.7,1.4c-18.5,0.1-37-0.5-55.4-1.4
						c-18.4-1-36.8-2.3-55-4.2c-4.6-0.5-9.1-0.9-13.7-1.4l-13.6-1.6l-6.8-0.8l-6.8-0.9l-13.6-1.9c-4.5-0.7-9-1.4-13.5-2.1
						c-4.5-0.7-9-1.4-13.5-2.2c-8.9-1.6-17.9-3.1-26.8-4.9c-35.6-6.9-70.8-15.3-105.4-25c-34.6-9.7-68.7-20.6-102.1-32.7
						c-8.3-3.1-16.7-6-25-9.3l-12.4-4.8l-12.3-4.9c-16.5-6.5-32.7-13.4-48.8-20.5c-64.5-28.4-126.6-60.5-186.5-95.4
						c-59.9-34.9-117.6-72.7-173.4-112.4c-111.6-79.5-215.6-167-315-258.1c-49.7-45.6-98.1-92.1-145.7-139.3
						c-23.8-23.6-47.4-47.3-70.7-71.2l-34.4-35.2c-11.4-11.6-22.9-23.2-34.4-34.7c-11.5-11.6-23-22.9-34.5-34.3
						c-5.7-5.7-11.5-11.3-17.3-16.9c-5.8-5.6-11.5-11.3-17.4-16.8c-11.6-11.1-23.2-22.3-35-33.2c-5.9-5.5-11.7-11-17.6-16.4
						l-17.7-16.1c-5.9-5.4-11.9-10.7-17.8-16c-6-5.3-11.9-10.6-17.9-15.8l-18.1-15.5l-9-7.7l-9.1-7.6l-18.3-15.1l-18.5-14.8
						l-9.3-7.4c-3.1-2.5-6.2-4.8-9.3-7.2l-18.7-14.3c-3.1-2.4-6.3-4.7-9.5-7l-9.5-6.9l-9.5-6.9c-1.6-1.1-3.2-2.3-4.8-3.5l-4.8-3.4
						l-19.2-13.4l-4.8-3.4c-1.6-1.1-3.2-2.2-4.9-3.2l-9.7-6.5l-9.7-6.5c-3.3-2.1-6.5-4.4-9.8-6.4l-19.7-12.4
						c-3.3-2.1-6.6-4.2-9.9-6.2l-10-5.9l-20-11.8c-53.7-30.7-109-57.6-165.9-80.4c-113.7-45.2-233.6-73.1-356.2-82.8l-0.1,0
						c-49.6-3.9-86.5-47.3-82.6-96.8C3289.2,3976.3,3332.5,3939.3,3382.1,3943.3L3382.1,3943.3z"/>
				</g>
			</g>
			<g>
				<g>
					<path class="st7" d="M3386.6-1113.9c72.4,6.7,144.8,18.3,216.1,35.4l26.7,6.5c8.9,2.3,17.7,4.9,26.5,7.3l13.2,3.7l6.6,1.9
						c2.2,0.6,4.4,1.3,6.6,2l26.2,8.2l13.1,4.1l13,4.5l25.9,9.1c4.3,1.5,8.6,3.2,12.9,4.8l12.8,4.9l12.8,4.9
						c4.3,1.7,8.6,3.2,12.7,5.1l25.2,10.6l12.6,5.3l12.4,5.7l24.8,11.4l3.1,1.4l3.1,1.5l6.1,3l12.2,6l12.2,6l6.1,3l6,3.2l24,12.7
						c8.1,4.2,15.9,8.7,23.7,13.1c7.9,4.4,15.7,8.8,23.6,13.3l23.2,13.9l11.6,6.9c3.8,2.3,7.6,4.8,11.4,7.2l22.7,14.4
						c3.8,2.4,7.5,4.9,11.2,7.3l11.1,7.4l11.1,7.4c1.8,1.2,3.7,2.5,5.6,3.7l5.5,3.8l21.9,15.3l5.5,3.8c1.8,1.3,3.6,2.6,5.4,3.9
						l10.7,7.8l10.7,7.8c3.6,2.6,7.2,5.2,10.7,7.9l21,16c3.5,2.7,7,5.3,10.5,8l10.3,8.1l20.6,16.3l20.3,16.5l10.1,8.3l10,8.4
						l19.9,16.7l19.6,16.9c6.5,5.6,13.1,11.3,19.5,17c51.6,45.5,101.3,91.9,149.5,138.2l36,34.7l35.6,34.4
						c23,22.3,46.2,44.3,69.6,66c46.7,43.4,94.3,85.7,142.8,126.5c96.9,81.5,197.7,157.1,302,224c52.2,33.4,105.2,64.7,158.9,93.1
						c26.9,14.2,53.9,27.9,81.1,40.6c27.2,12.8,54.5,24.8,81.9,36.1c27.4,11.2,55,21.5,82.5,30.9c3.4,1.2,6.9,2.3,10.4,3.5l10.3,3.4
						l10.4,3.3c3.5,1.1,6.9,2.2,10.4,3.2l10.4,3.1c3.4,1.1,6.9,2,10.4,3c3.5,1,6.9,2,10.4,2.9l10.4,2.8l5.2,1.4l5.2,1.3l10.4,2.6
						c3.5,0.9,6.9,1.6,10.4,2.5c3.5,0.8,6.9,1.7,10.4,2.4c6.9,1.5,13.8,3.1,20.7,4.5l10.3,2.1l10.3,1.9c27.6,5.2,55,9.1,82.3,11.7
						c6.8,0.7,13.6,1.2,20.5,1.8c3.4,0.3,6.8,0.5,10.2,0.7l10.2,0.6c13.6,0.6,27.1,1.1,40.6,1c13.5,0.1,26.9-0.4,40.2-1
						c13.3-0.8,26.6-1.7,39.8-3.2c13.2-1.3,26.3-3.3,39.4-5.3l9.8-1.7c3.2-0.6,6.5-1.1,9.7-1.8c6.5-1.3,13-2.5,19.4-4.1
						c25.7-5.8,51.2-12.8,76.1-21.6c25-8.7,49.6-18.7,73.7-30.2l2.3-1.1l2.3-1.1l4.5-2.2l9-4.4l8.9-4.7l4.5-2.3
						c1.5-0.8,3-1.5,4.5-2.4c11.8-6.5,23.6-13.2,35.2-20.3c46.5-28.3,91-61.8,133.5-99.5c21.2-18.8,41.9-38.7,62-59.5
						c20.1-20.8,39.7-42.4,58.8-64.8c19-22.4,37.5-45.7,55.4-69.5l6.7-9c2.2-3,4.5-6,6.7-9l13.2-18.2c8.6-12.3,17.4-24.6,25.8-37.1
						c4.2-6.3,8.5-12.5,12.6-18.9l12.5-19l26.4-41.5c19.9-30.9,40.8-61.1,62.7-90.6c21.9-29.4,44.9-57.9,68.8-85.7
						c23.9-27.7,48.6-54.6,74.2-80.6c102.5-103.8,218-193.2,341.6-267.1c123.6-74.1,255.5-132.5,391.5-176.2
						c136.1-43.4,276.5-71.8,418.1-85c35.4-3.3,70.9-5.5,106.4-7l13.3-0.5c4.4-0.2,8.9-0.3,13.3-0.4l26.6-0.5
						c17.8-0.1,35.5-0.3,53.3,0.1c71.1,0.9,142,5.9,212.6,14.3c68.8,8.3,137.9,19,207.2,33.1c69.3,14.1,138.8,31.8,208,54.2
						c77.4,25.1,119.8,108.2,94.7,185.6c-25.1,77.4-108.2,119.8-185.6,94.7c-0.7-0.2-2.1-0.7-2.8-0.9
						c-55.5-19.2-113.5-34.5-173-46.8c-59.5-12.2-120.6-21.4-182.3-28.4c-30-3.3-60.2-5.8-90.3-7.5l-22.6-1.1l-22.6-0.7l-5.7-0.2
						l-5.7-0.1l-11.3-0.2l-11.3-0.2l-11.3,0c-15.1-0.1-30.2,0.3-45.3,0.6l-22.6,0.8c-3.8,0.1-7.5,0.3-11.3,0.5l-11.3,0.6
						c-3.8,0.2-7.5,0.4-11.3,0.6l-11.3,0.8c-7.5,0.5-15.1,1-22.6,1.7c-7.5,0.7-15,1.3-22.6,2l-22.5,2.3c-30,3.3-59.9,7.4-89.7,12.3
						l-22.3,3.8l-22.2,4.2l-5.6,1l-5.5,1.1l-11.1,2.3l-11.1,2.3l-11,2.5c-58.9,13-116.8,29.4-173.7,48.7
						c-28.4,9.7-56.5,20.3-84.3,31.5l-10.4,4.3l-5.2,2.1l-5.2,2.2l-20.6,8.9l-20.5,9.2c-3.4,1.5-6.8,3.1-10.2,4.7l-10.1,4.8
						c-27,12.9-53.6,26.4-79.8,40.7c-26.2,14.3-51.8,29.5-77,45.3c-100.7,63.2-193,138.3-273.5,223.5
						c-40.2,42.6-77.4,87.7-111.3,134.9c-16.9,23.7-32.9,47.9-48.1,72.5l-25.8,42.2c-4.7,7.5-9.4,15-14.2,22.5
						c-4.7,7.5-9.6,14.9-14.4,22.4c-38.7,59.6-81,117.7-127.1,173.8c-23.1,28-47.3,55.5-72.6,82.3c-25.3,26.8-51.7,52.8-79.4,78
						c-55.3,50.3-115.7,96.9-181.2,137.5c-16.3,10.2-33.1,19.9-50,29.3c-2.1,1.2-4.2,2.3-6.4,3.5l-6.4,3.4l-12.9,6.8l-13,6.6
						l-6.5,3.3l-3.3,1.6l-3.3,1.6c-35.1,16.9-71.4,32-108.4,45.1c-4.6,1.7-9.3,3.2-13.9,4.8l-14,4.6l-14.1,4.3
						c-4.7,1.4-9.4,2.9-14.1,4.2c-9.5,2.6-18.9,5.4-28.5,7.7l-14.3,3.6l-14.4,3.3c-9.6,2.3-19.2,4.1-28.9,6.1
						c-4.8,1-9.7,1.8-14.5,2.7c-4.8,0.9-9.7,1.8-14.5,2.6c-19.4,3.1-38.8,6-58.3,8c-19.5,2.2-39,3.6-58.5,4.8
						c-19.5,0.9-39,1.6-58.4,1.5c-4.8,0-9.7,0-14.5-0.1l-14.5-0.3l-7.3-0.2l-7.2-0.3L5758,558c-19.2-1.2-38.4-2.5-57.5-4.6
						c-4.8-0.5-9.5-1-14.3-1.6l-14.2-1.8l-7.1-0.9l-7.1-1l-14.1-2.1c-4.7-0.7-9.4-1.5-14-2.3c-4.7-0.8-9.4-1.5-14-2.4
						c-9.3-1.7-18.6-3.4-27.8-5.3l-13.9-2.8l-13.8-3.1c-9.2-2-18.3-4.3-27.4-6.4c-4.6-1.1-9.1-2.3-13.6-3.5
						c-4.5-1.2-9.1-2.3-13.5-3.5l-13.5-3.7l-6.7-1.9l-6.7-2c-35.6-10.4-70.7-22.1-104.9-34.9c-34.3-12.9-67.9-26.8-100.8-41.6
						c-32.9-14.9-65.2-30.7-96.8-47.3c-4-2.1-7.9-4.1-11.8-6.2l-11.8-6.3c-7.8-4.2-15.6-8.5-23.4-12.8
						c-15.5-8.7-30.9-17.5-46.1-26.5c-60.9-35.9-119.5-74.4-176.3-114.5c-28.4-20.1-56.3-40.6-83.9-61.5c-13.8-10.4-27.4-21-41-31.6
						c-13.6-10.6-27-21.3-40.4-32.1C4688.1,50.7,4636,6.4,4585-38.9c-51-45.3-100.8-91.4-149.6-138.3c-24.4-23.4-48.6-47-72.5-70.8
						l-34.9-34.7c-11.5-11.4-23.1-22.9-34.6-34.1c-11.5-11.4-23-22.5-34.6-33.7c-5.8-5.6-11.5-11.1-17.3-16.6
						c-5.8-5.5-11.5-11.1-17.3-16.5c-11.5-10.9-23.1-21.8-34.7-32.4c-5.8-5.3-11.6-10.7-17.4-16l-17.5-15.7
						c-5.8-5.3-11.7-10.4-17.6-15.6l-17.6-15.4l-17.7-15.1l-8.9-7.5l-8.9-7.4l-17.9-14.7l-18-14.3l-9-7.2c-3-2.4-6.1-4.7-9.1-7
						l-18.2-13.9c-48.7-36.6-98.6-70.2-149.9-100.2l-19.4-10.9c-6.5-3.6-12.9-7.4-19.5-10.7l-19.6-10.3l-4.9-2.6l-5-2.4l-9.9-4.8
						l-9.9-4.8l-5-2.4l-2.5-1.2l-2.5-1.1l-20-9.1l-10-4.5l-10.1-4.2l-20.3-8.4c-108.5-43.3-222.8-69-340.1-76.7
						c-81.2-5.3-142.7-75.5-137.4-156.7c5.3-81.2,75.5-142.7,156.7-137.4c1.1,0.1,2.1,0.1,3.2,0.2L3386.6-1113.9z"/>
				</g>
			</g>
			<polyline class="st9" points="2688.1,3744.9 5104.5,3312.5 6738,-1086.1 			"/>
			<line class="st9" x1="5863" y1="6270.1" x2="6640.5" y2="4176.5"/>
			<line class="st9" x1="7012.7" y1="3865.7" x2="9308.1" y2="3455"/>
			<g>
				<g>
					<path class="st8" d="M3382.1-1056.7c69.7,6.9,139.1,18.2,207.4,34.8c68.3,16.5,135.4,38,200.4,64.4
						c64.9,26.5,127.7,57.6,188,92.3c60.1,35,117.7,73.3,172.9,114.2l20.6,15.5c3.4,2.6,6.9,5.1,10.2,7.8l10.1,7.9l20.2,15.8
						l19.9,16.1l10,8l9.8,8.1l19.6,16.3l19.4,16.5c6.4,5.5,12.9,11,19.2,16.6l19.1,16.7c6.4,5.6,12.6,11.2,18.9,16.8
						c12.6,11.2,25,22.5,37.4,33.8c24.7,22.6,49.2,45.4,73.4,68.1l36.2,34.1l36,33.9c23.6,22.2,47.3,44,71.3,65.6
						c24,21.5,48.2,42.8,72.7,63.7c24.4,20.9,49.1,41.5,74,61.7c99.6,80.9,202.8,156.1,309.1,223.8c53.2,33.8,107.1,65.8,161.8,95.2
						c54.7,29.5,110.2,56.5,166.4,80.3c14.1,5.9,28.2,11.7,42.3,17.2l10.6,4.1l10.6,4c7.1,2.7,14.2,5.2,21.3,7.8
						c28.4,10.2,57,19.3,85.7,27.4c28.7,8.1,57.6,15,86.4,20.6c7.2,1.5,14.4,2.7,21.7,4c3.6,0.7,7.2,1.2,10.8,1.8
						c3.6,0.6,7.2,1.2,10.8,1.7l10.8,1.5l5.4,0.8l5.4,0.7l10.8,1.3c3.6,0.4,7.2,0.8,10.8,1.1c14.4,1.6,28.9,2.6,43.3,3.4
						c14.4,0.7,28.8,1.2,43.1,1.2c14.4,0.1,28.6-0.4,42.9-1c14.2-0.9,28.5-1.8,42.6-3.4c14.1-1.4,28.2-3.5,42.2-5.6l10.5-1.8
						c3.5-0.6,7-1.2,10.4-1.9c6.9-1.4,13.9-2.7,20.8-4.3l10.4-2.3l10.3-2.6c6.9-1.6,13.7-3.6,20.5-5.5c3.4-0.9,6.8-2,10.2-3
						l10.2-3.1l10.1-3.3c3.4-1.1,6.7-2.2,10.1-3.4c107.3-36.9,206.7-99.4,295.2-178.6c44.3-39.6,86.1-83.2,125.3-129.7
						c19.6-23.3,38.6-47.3,57-71.9l6.9-9.3c2.3-3.1,4.6-6.2,6.8-9.3l13.5-18.8c8.8-12.7,17.7-25.3,26.3-38.2
						c4.3-6.4,8.7-12.8,12.9-19.4l12.7-19.6l26.3-41.6c19.1-30,39.3-59.4,60.4-88c21.2-28.6,43.4-56.3,66.4-83.3l8.7-10.1
						c2.9-3.4,5.9-6.6,8.8-10l8.8-9.9l4.4-5l4.5-4.9c6-6.5,12-13,18.1-19.5l18.4-19.1c99.2-101.1,211.2-188.5,331.6-260.7
						c120.3-72.4,248.9-129.6,381.7-172.1c132.9-42.3,270.1-69.6,408.4-81.9c34.6-3.1,69.2-5.1,103.9-6.3l13-0.4
						c4.3-0.1,8.7-0.3,13-0.3l26-0.4c17.3,0,34.7,0,52,0.4c69.3,1.3,138.5,6.8,207.2,15.6c33.8,4.5,67.5,9.6,101.3,15.4l12.7,2.2
						l12.6,2.3l12.6,2.3c4.2,0.8,8.4,1.6,12.6,2.5c8.4,1.7,16.8,3.3,25.3,5.1c8.4,1.8,16.8,3.5,25.2,5.4
						c33.6,7.5,67.2,15.8,100.7,25.3c33.4,9.4,66.7,20,99.7,31.7c46.8,16.7,71.2,68.2,54.5,115c-16.2,45.5-65.4,69.9-111.2,55.8
						l-0.6-0.2c-117.5-36.3-241.8-57.5-367.9-70.1c-123.9-12.3-248.9-11.3-372.2,2.8c-30.8,3.6-61.5,7.9-92.1,13l-22.9,4l-22.8,4.4
						l-5.7,1.1l-5.7,1.2l-11.4,2.4l-11.4,2.4l-11.3,2.6c-30.2,6.8-60.2,14.3-90,22.8c-29.8,8.4-59.3,17.6-88.5,27.6
						c-29.2,10-58.1,20.9-86.7,32.4l-10.7,4.4l-5.4,2.2l-5.3,2.3l-21.2,9.1l-21.1,9.4c-3.5,1.5-7,3.2-10.5,4.9l-10.5,4.9
						c-27.8,13.2-55.2,27.1-82.2,41.8c-27,14.7-53.4,30.2-79.5,46.5c-104,64.9-199.7,142.1-283.5,229.9
						c-20.9,21.9-41.1,44.6-60.4,67.9c-19.4,23.3-38,47.1-55.6,71.6c-17.7,24.5-34.5,49.6-50.4,75.1l-25.9,42.1
						c-4.6,7.3-9.3,14.6-13.9,22c-2.3,3.6-4.6,7.3-7,11l-7.2,10.9c-9.5,14.6-19.3,28.9-29.2,43.3L6748-33.7
						c-2.5,3.6-5.1,7.1-7.7,10.6l-7.7,10.6c-20.7,28.2-42.2,56-64.7,83.2c-45.1,54.3-94,106.5-147.4,154.9
						c-53.4,48.4-111.4,93-174.1,131.8c-15.6,9.7-31.6,19-47.8,28c-2,1.1-4,2.2-6.1,3.3l-6.1,3.3l-12.3,6.5l-12.4,6.2l-6.2,3.1
						l-3.1,1.6l-3.2,1.5c-33.5,16.1-68,30.5-103.3,42.9c-4.4,1.6-8.8,3.1-13.3,4.5l-13.3,4.4l-13.4,4.1c-4.5,1.3-8.9,2.8-13.5,4
						c-9,2.5-18,5.1-27.1,7.4l-13.6,3.5l-13.7,3.1c-9.1,2.2-18.3,3.9-27.5,5.8c-4.6,1-9.2,1.7-13.8,2.6c-4.6,0.8-9.2,1.7-13.8,2.5
						c-18.5,3-37,5.7-55.5,7.6c-18.5,2.1-37.1,3.5-55.7,4.6c-18.6,0.9-37.1,1.5-55.7,1.4c-18.5,0.1-37-0.5-55.4-1.4
						c-18.4-1-36.8-2.3-55-4.2c-4.6-0.5-9.1-0.9-13.7-1.4l-13.6-1.6l-6.8-0.8l-6.8-0.9l-13.6-1.9c-4.5-0.7-9-1.4-13.5-2.1
						c-4.5-0.7-9-1.4-13.5-2.2c-8.9-1.6-17.9-3.1-26.8-4.9c-35.6-6.9-70.8-15.3-105.4-25c-34.6-9.7-68.7-20.6-102.1-32.7
						c-8.3-3.1-16.7-6-25-9.3l-12.4-4.8l-12.3-4.9c-16.5-6.5-32.7-13.5-48.8-20.5c-64.5-28.4-126.6-60.5-186.5-95.5
						c-59.9-34.9-117.6-72.7-173.4-112.4c-111.6-79.6-215.6-167-314.9-258.1c-49.7-45.6-98.1-92.1-145.7-139.3
						c-23.8-23.6-47.4-47.3-70.8-71.2l-34.5-35.1c-11.5-11.6-22.9-23.2-34.4-34.7c-11.5-11.6-23-22.9-34.5-34.3
						c-5.7-5.7-11.6-11.3-17.3-16.9c-5.8-5.6-11.6-11.3-17.4-16.8c-11.6-11.1-23.3-22.3-35-33.1c-5.9-5.5-11.7-11-17.6-16.4
						l-17.7-16.1c-5.9-5.4-11.8-10.7-17.8-16c-6-5.3-11.9-10.6-17.9-15.8l-18-15.5l-9-7.8l-9.1-7.6l-18.2-15.2l-18.4-14.8l-9.2-7.4
						c-3.1-2.5-6.2-4.8-9.3-7.2l-18.7-14.4c-3.1-2.4-6.3-4.7-9.4-7.1l-9.4-7l-9.4-7c-1.6-1.2-3.1-2.4-4.7-3.5l-4.8-3.4l-19.1-13.6
						l-4.8-3.4c-1.6-1.1-3.2-2.2-4.8-3.3l-9.7-6.5l-9.7-6.5c-3.2-2.2-6.4-4.4-9.7-6.5l-19.7-12.5c-3.3-2.1-6.5-4.2-9.8-6.3l-10-6
						l-19.9-12c-53.5-31.2-108.8-58.6-165.7-81.5c-113.9-45.6-234.6-72.6-357.3-79.9c-49.6-2.9-87.5-45.6-84.5-95.2
						c2.9-49.6,45.6-87.5,95.2-84.5c1,0.1,2.1,0.1,3.1,0.2L3382.1-1056.7z"/>
				</g>
			</g>
			<line class="st10" x1="6153" y1="2684" x2="7858" y2="653"/>
			<circle class="st9" cx="6738" cy="3915" r="279"/>
			<circle class="st10" cx="4275" cy="1241" r="197"/>
			<line class="st9" x1="5105" y1="3312" x2="6453.1" y2="4681.1"/>
			<polyline class="st9" points="4478,1309 5697.5,1715.8 6618.6,3662.8 			"/>
			<line class="st10" x1="2858" y1="653" x2="4093" y2="1165.5"/>
			<polyline class="st10" points="9093,1165.5 7858,653 6067,720 			"/>
			<line class="st10" x1="4302.1" y1="1436.1" x2="4575.9" y2="3407.1"/>
			<path class="st8" d="M6676,2483c23.1,88.7,168,117,275,65c92.5-44.9,135-163,221-209s332-109,264-220s-362-239-478-114
				c-66.4,71.6-95,232-175,291S6652,2391,6676,2483z"/>
		</g>
		<g>
			<line class="st3" x1="7632.9" y1="3925.2" x2="7767" y2="4334"/>
			<line class="st3" x1="3641.3" y1="3846.3" x2="3594" y2="4303"/>
			<line class="st9" x1="5104.5" y1="3312.5" x2="6738" y2="-1086.1"/>
		</g>
	</g>
</g>
</svg>
