<?xml version="1.0" encoding="utf-8"?>
<svg xmlns="http://www.w3.org/2000/svg" version="1.1" width="640" height="480" viewBox="0 0 640 480"><svg xmlns:xlink="http://www.w3.org/1999/xlink" version="1.1" id="Ebene_1" x="0" y="-80" viewBox="0 0 1280 1280" style="enable-background:new 0 0 1280 1280;" xml:space="preserve" width="640" height="640">
<style type="text/css">
	.st0{fill:#E3000B;}
	.st1{fill:#FFFFFF;}
</style>
<polyline class="st0" points="1280,777.4 0,777.4 0,502.6 1280,502.6 "/>
<g>
	<g>
		<path class="st1" d="M174.9,694.9c-11.3,11.7-25.1,17-41.6,17c-15.8,0-29.1-5.3-40-16.2c-6.5-6.5-10.5-13.7-12.1-22.2    c-1.6-8.5-2.4-20.6-2.4-36.8c0-16.2,0.8-28.3,2.4-36.8c1.6-8.5,5.7-15.8,12.1-22.2c10.9-10.9,24.2-16.2,40-16.2    c33.5,0,51.7,21.4,55.8,47.3H160c-3.6-14.1-12.1-21.4-26.7-21.4c-7.7,0-13.7,2.8-18.6,8.1c-5.3,6.9-6.9,12.1-6.9,41.6    c0,29.1,1.2,34.7,6.9,41.6c4.4,5.3,10.5,7.7,18.6,7.7c8.5,0,15.4-2.8,20.6-8.5c4.4-4.8,6.5-11.7,6.5-19.8v-5.7h-27.1v-24.2h55.8    v21.4C189.1,671.5,185.1,684,174.9,694.9z"/>
		<path class="st1" d="M244.4,710.3c-22.2,0-31.5-15.8-31.5-31.1V562.4H240v115.2c0,6.5,2.8,9.7,9.7,9.7h10.5v23H244.4z"/>
		<path class="st1" d="M337,710.3V701c-7.3,7.3-14.1,10.5-26.7,10.5c-12.1,0-21-3.2-27.5-9.7c-5.7-6.1-8.9-14.5-8.9-24.2    c0-17.4,11.7-31.5,36.8-31.5h25.5v-5.3c0-11.7-5.7-17-20.2-17c-10.5,0-15.4,2.4-20.6,8.9l-17.4-17c10.5-11.7,21-14.9,39.2-14.9    c30.3,0,46.1,12.9,46.1,38.4v71.1H337L337,710.3z M336.2,664.6h-21.4c-9.7,0-15.4,4.4-15.4,12.1c0,7.3,4.8,12.5,15.8,12.5    c7.3,0,12.1-0.8,17-5.3c2.8-2.8,4-6.9,4-13.7L336.2,664.6L336.2,664.6z"/>
		<path class="st1" d="M451.3,631.5c-4-4-7.7-6.5-14.1-6.5c-8.5,0-17.4,6.1-17.4,19.8v65.1h-27.5V602h26.3v10.5    c5.3-6.1,15.8-11.7,27.1-11.7c10.5,0,18.2,2.8,25.5,10.1L451.3,631.5z"/>
		<path class="st1" d="M549.9,710.3v-65.5c0-14.5-9.3-19.8-17.8-19.8s-18.2,4.8-18.2,19.8v65.5h-27.1V602h26.3v10.1    c6.9-7.3,17-11.3,27.1-11.3c10.9,0,19.4,3.6,25.5,9.7c8.9,8.9,10.9,19,10.9,30.7v69.1H549.9L549.9,710.3z"/>
		<path class="st1" d="M627.1,664.6c0,13.7,8.5,24.2,23.8,24.2c11.7,0,17.8-3.2,24.6-10.1l16.6,16.2c-10.9,10.9-21.4,17-41.2,17    c-25.5,0-50.1-11.7-50.1-55.4c0-35.2,19-55.4,47.3-55.4c30.3,0,47.3,21.8,47.3,51.7v12.1L627.1,664.6L627.1,664.6z M665.5,634.7    c-2.8-6.5-8.9-11.3-18.2-11.3c-9.3,0-15.4,4.8-18.2,11.3c-1.6,4-2.4,6.9-2.4,11.7h41.2C667.9,641.6,667.1,638.4,665.5,634.7z"/>
		<path class="st1" d="M778.2,631.5c-4-4-7.7-6.5-14.1-6.5c-8.5,0-17.4,6.1-17.4,19.8v65.1h-27.1V602h26.3v10.5    c5.3-6.1,15.8-11.7,27.1-11.7c10.5,0,18.2,2.8,25.5,10.1L778.2,631.5z"/>
		<path class="st1" d="M844.4,710.3c-22.2,0-31.5-15.8-31.5-31.1V562.4H840v115.2c0,6.5,2.8,9.7,9.7,9.7h10.5v23H844.4z"/>
		<path class="st1" d="M937,710.3V701c-7.3,7.3-14.1,10.5-26.7,10.5c-12.1,0-21-3.2-27.5-9.7c-5.7-6.1-8.9-14.5-8.9-24.2    c0-17.4,11.7-31.5,36.8-31.5h25.5v-5.3c0-11.7-5.7-17-20.2-17c-10.5,0-15.4,2.4-20.6,8.9l-17.4-17c10.5-11.7,21-14.9,39.2-14.9    c30.3,0,46.1,12.9,46.1,38.4v71.1H937L937,710.3z M936.2,664.6h-21.4c-9.7,0-15.4,4.4-15.4,12.1c0,7.3,4.8,12.5,15.8,12.5    c7.3,0,12.1-0.8,17-5.3c2.8-2.8,4-6.9,4-13.7L936.2,664.6L936.2,664.6z"/>
		<path class="st1" d="M1055.4,710.3v-65.5c0-14.5-9.3-19.8-17.8-19.8c-8.5,0-18.2,4.8-18.2,19.8v65.5h-27.1V602h26.3v10.1    c6.9-7.3,17-11.3,27.1-11.3c10.9,0,19.4,3.6,25.5,9.7c8.9,8.9,10.9,19,10.9,30.7v69.1H1055.4L1055.4,710.3z"/>
		<path class="st1" d="M1171.3,710.3v-10.1c-7.3,8.5-15.4,11.3-26.7,11.3c-10.5,0-20.6-3.6-26.7-9.7c-10.9-10.9-10.9-29.5-10.9-45.7    s0.4-34.7,10.9-45.7c6.1-6.1,15.8-9.7,26.3-9.7c10.9,0,19.4,2.8,26.3,10.9v-49.3h27.1v147.9H1171.3L1171.3,710.3z M1151.9,625.1    c-16.2,0-18.2,13.3-18.2,31.1s2,31.1,18.2,31.1s18.6-13.3,18.6-31.1S1168.1,625.1,1151.9,625.1z"/>
	</g>
</g>
</svg></svg>
