<?xml version="1.0" encoding="utf-8"?>
<svg xmlns="http://www.w3.org/2000/svg" version="1.1" width="640" height="480" viewBox="0 0 640 480"><svg xmlns:xlink="http://www.w3.org/1999/xlink" version="1.1" id="Ebene_1" x="0" y="-80" viewBox="0 0 1280 1280" style="enable-background:new 0 0 1280 1280;" xml:space="preserve" width="640" height="640">
<style type="text/css">
	.st0{fill:#727171;}
</style>
<path class="st0" d="M555.6,670.3c-0.6-16.1,6.8-27.8,16.5-29.5c0.4-0.1,0.8-0.1,1.1-0.1c2.8,0,4.7,2,5.2,4.8  C579.7,652.1,573.8,663.2,555.6,670.3z M1265.3,594.4c-5.9,5.9-12.9,12.6-20.3,19.6c-9.3,31.6-31.4,94.5-61.6,99.8  c-2.1,0.4-4.2,0.6-6.2,0.6c-11.4,0-24.8-6.7-28.1-25.4c-3.1-17.7,5.1-42.4,17.7-65.1c-2.7,0.4-5.3,0.6-7.8,0.6  c-11.5,0-20.9-4.2-27.2-11.7c-26.6,21-37.6,23-41.7,23.7c-2.1,0.4-4.1,0.6-6.1,0.6c-11.6,0-25.3-6.9-28.7-26.3  c-0.2-1-0.3-1.9-0.4-2.9c-31.6,29.3-55.4,44.6-74,47.9c-1.9,0.3-3.9,0.5-5.7,0.5c-7.2,0-13.4-2.6-18-7.1  c-11.6,10.1-23.4,16.2-35.3,18.3c-3.5,0.6-6.7,0.9-9.7,0.9c-11.9,0-26.9-4.8-31.1-27.8c-0.9,0.2-1.8,0.3-2.7,0.4  c-12.3,23.8-32.2,39.5-55.8,43.6c-2.7,0.5-5.4,0.7-8.1,0.7c-15,0-28.2-6.7-36.6-17.5c-24,20.3-42.8,31.3-58.3,34  c-2.1,0.4-4.1,0.6-6.1,0.6c-9.2,0-19.7-4.3-25.4-15.8c-14.2,17.8-21.7,25.9-31.6,27.7c-1.5,0.3-3.2,0.4-4.9,0.4  c-9,0-21.2-3.7-28.3-11.8c-16,12.2-33.3,21.9-52.8,25.3c-5.1,0.9-10.1,1.4-14.6,1.4c-14.2,0-26-4.5-34.5-12.9  c-12.3,12.1-23.8,22.9-34.5,32.4c-10.9,36.3-32.1,92.4-60.9,97.5c-2.1,0.4-4.2,0.6-6.2,0.6c-11.4,0-24.8-6.7-28.1-25.4  c-3.2-18,5-42.1,17.1-64c-2.7,0.4-5.3,0.6-7.8,0.6c-9.8,0-18.1-3.1-24.3-8.7c-8.8,8.5-17.2,16.2-25.1,23.3  c-10.9,36.3-32.1,92.4-60.9,97.5c-2.1,0.4-4.2,0.6-6.2,0.6c-11.4,0-24.8-6.7-28.1-25.4c-3.2-18,5-42.1,17.1-64  c-2.7,0.4-5.3,0.6-7.8,0.6c-17.1,0-29.6-9.3-34.4-25.2c-13.4,22.2-34.4,38.2-56.2,42c-3.8,0.7-7.6,1-11.3,1  c-21.9,0-38.8-12.6-44.4-32.6c-1.9,10-3.6,20-5,29.6c-1.2,9.8-8.1,17.4-17.3,19c-1.3,0.2-2.6,0.3-3.9,0.3  c-16.8,0-34.5-19.1-37.3-34.7c-3.7-21.3,5.3-69.4,27-143.4c-13,8.9-24.8,18.1-35.3,27.5c-2.2,2-5.7,4.8-11.1,5.7  c-1.2,0.2-2.5,0.3-3.8,0.3c-14.2,0-24.1-13-26.3-25.3c-1.4-7.9,0.6-15.5,5.5-21.3l0.3-0.4l0.3-0.3c37.2-39.5,124.8-102.7,177.4-112  c1.5-0.3,3.1-0.4,4.7-0.4l0,0c19.8,0,34.3,20.7,36.9,35c2.7,15.2-6,24.7-15.9,27.4c-15.2,4.4-31.5,10.2-47.7,17.1  c0.5,3,0.3,5.9-0.5,8.8l-0.2,0.7l-0.3,0.7c-10.4,27.5-23,65.4-33.6,105.3c0.6-0.8,1.2-1.5,1.8-2.3c12.1-15,29-25.9,44-28.5  c1.4-0.2,2.9-0.4,4.3-0.4c3,0,5.8,0.5,8.4,1.6c3.6-2,7.5-3.4,11.5-4.1c2.3-0.4,4.5-0.6,6.8-0.6c12.3,0,26.6,6.7,32.3,25.1  c2.1-1.3,4.3-2.8,6.5-4.6c11.8-16.5,29.9-34.4,46.9-37.4c2-0.3,4-0.5,6-0.5c5.9,0,11.3,1.6,15.8,4.5c4.2-3.5,9.5-5.9,15.7-7  c2.5-0.4,5.3-0.7,8.1-0.7c19.6,0,28.5,10.6,30.2,20.6c0.6,3.3,0.4,6.7-0.2,11c3.3-3.4,6.7-6.9,10.1-10.5c11.5-17.3,31-38,49.6-41.3  c2-0.4,4-0.5,6-0.5c5.9,0,11.3,1.6,15.8,4.5c4.2-3.5,9.5-5.9,15.7-7c2.5-0.4,5.3-0.7,8.1-0.7c19.6,0,28.5,10.6,30.2,20.6  c0.6,3.3,0.4,6.7-0.2,11c2-2.1,4.1-4.2,6.2-6.4c10.8-22.9,34.9-42.1,58.6-46.3c3.9-0.7,7.7-1,11.3-1c20.2,0,34.8,11.4,38,29.7  c0.1,0.7,0.2,1.4,0.3,2c3.8-3.8,7.3-7.5,10.7-11.1c2.1-6.2,4.2-11.8,6.3-17.3c3.7-10.1,13-17.1,25.4-19.3c2.6-0.5,5.3-0.7,8.1-0.7  c11,0,20.4,3.5,26.3,9.5c9.9-9.5,19.9-16.7,28.6-18.2c1.5-0.3,3.1-0.4,4.7-0.4c14.4,0,28.1,11.1,30.5,24.8c0.6,3.2,0.8,6.4,0.7,9.6  c1.9-1.8,3.9-3.7,5.8-5.7c2.1-16,7.7-34.3,18.1-65.3c11.8-35.3,23.5-66.2,33.9-89.2c16.1-35.6,24.7-43.3,34.8-45.1  c1.3-0.2,2.7-0.3,4-0.3l0,0c15.3,0,26.2,14.8,28.7,28.7c0.9,5.2,3.1,17.5-20.5,83c-4.6,12.8-9.7,26.2-14.8,38.9  c15.5,0.4,28.3,10.1,34.1,25.1c2.3-1.3,4.6-2.9,7-4.8c1.9-5.5,3.9-10.9,6.1-16.6c3.7-10.1,13-17.1,25.4-19.3  c2.6-0.5,5.4-0.7,8.1-0.7c13.8,0,24.9,5.4,30,14.1c0.6-1.7,1.1-3.3,1.6-4.9c3.2-10.7,12.2-18.4,24.1-20.5c4.4-0.8,8.5-1.2,12.2-1.2  c15.6,0,22.4,7,25.5,12.8c2.1-17.5,15.6-32.7,33.5-35.9c2.8-0.5,5.6-0.7,8.2-0.7c15.4,0,27.3,8.8,31,22.6c0.9,0.2,1.8,0.4,2.7,0.6  l0.2,0.1l0.1,0l0.1,0c11.9,3,19.9,11,22.1,22c7.4-6.9,15-14.6,22.7-23.2c7-8.7,24.3-28.1,42.3-31.3c2-0.4,4-0.5,6-0.5  c5.9,0,11.3,1.6,15.8,4.5c4.2-3.5,9.5-5.9,15.7-7c2.5-0.4,5.3-0.7,8.1-0.7c19.6,0,28.5,10.6,30.2,20.6c1.1,6.2-0.4,13-3,25.5  c-0.6,2.7-1.2,5.5-1.8,8.5c6.8,3.2,12.1,9.8,13.5,17.8C1274.3,572.4,1276.4,584,1265.3,594.4z M150.6,595.6c0.2-0.7,0.1-1,0.1-1.3  c-0.6-3.2-7.6-4.8-15.4-4.8c-1.4,0-2.8,0.1-4.2,0.2c28-14.4,55.9-25.1,79.7-31.9c3.4-0.9,4.2-4,3.5-7.8  c-1.5-8.6-10.8-20.7-19.8-20.7c-0.6,0-1.1,0-1.7,0.1C143.7,538.1,59.5,599.7,25,636.3c-1.6,1.9-2.2,4.3-1.7,7.1  c0.9,5.3,5.1,11,9.3,11c0.3,0,0.5,0,0.8-0.1c0.9-0.2,1.5-0.6,2.4-1.4c22.4-20.2,49.4-38.2,76.9-53.5c-21,66.7-44.6,152-39.8,179.1  c1.6,9.3,13.7,20.4,20.2,20.4c0.3,0,0.6,0,0.9-0.1c1.6-0.3,2.9-1.8,3.2-4.1C107.2,723.4,133.3,641.2,150.6,595.6z M1256.3,569.8  c-0.5-2.6-2.9-5.5-5.5-5.5c-0.2,0-0.4,0-0.6,0.1c-2.8,0.5-7.5,5.2-12.8,10.1l3.6-18.5c3-17.7,7.5-33.1,6.6-37.8  c-0.8-4.8-7.4-6.3-13.2-6.3c-1.8,0-3.6,0.2-5,0.4c-5.4,0.9-9.4,3.6-10.9,8.1l-7.3,22.7c-4.4,13.8-23.6,35.3-32.1,36.8  c-0.6,0.1-1.1,0.2-1.7,0.2c-4.5,0-6.8-3.7-7.5-8c-0.7-4.1-0.2-8.7,1.3-11.3c13.1-4.6,37.4-21.5,34.6-37.6c-0.7-3.9-4.2-8.2-10.8-8.2  c-0.9,0-1.9,0.1-2.9,0.3c-8.7,1.5-21.4,12-32,25.4c-13,14.5-35.5,37.8-61.2,53.4c-1.7-9.4,10.2-26.8,8.3-37.8  c-0.7-4.1-3.2-7.2-9.3-8.7c-4.7-1.1-9.5-2.2-15.5-3.1c0.4-3,0.6-5.9,0.1-8.5c-1.3-7.1-6.3-11.3-14.6-11.3c-1.6,0-3.3,0.2-5.2,0.5  c-13.5,2.4-21.2,15.8-19.2,27.4c0.8,4.7,2.9,8.9,7.1,12.4l0.5,0.5c-12.8,13.4-32.5,33.1-53.2,44.5c3.2-18.4,8.9-37.6,13.3-53.6  c0.1-1,0.3-2,0.1-2.9c-0.6-3.6-5-4.9-10.6-4.9c-2.9,0-6,0.3-9.2,0.9c-5.7,1-9.3,4.2-10.5,8.4c-6.5,22.2-26.6,55-49.3,68.4  c4.6-16.4,13.5-44.9,16.1-54.1c0.8-2.7,0.7-3.4,0.5-4.3c-0.7-4.1-7.9-6.9-15.5-6.9c-1.7,0-3.4,0.1-5.1,0.4  c-5.4,0.9-10.4,3.5-12.2,8.3c-2.9,7.4-5.3,14.2-7.5,20.7c-10.2,9-19.8,14-29.6,15.8c-1.9,0.3-3.6,0.6-5.2,0.6c-0.5,0-1,0-1.5-0.1  c0.3-3.6,0.4-6.9-0.1-9.7c-1.7-9.9-8.5-19.7-20.5-19.7c-1.4,0-2.8,0.1-4.3,0.4c-12,2.1-17.7,13.8-16.2,22  c1.9,10.7,8.7,17.9,18.4,21.7c-3.6,10.7-10.5,19.7-19.9,21.4c-1.1,0.2-2.1,0.3-3.1,0.3c-7.2,0-11.4-5.1-12.8-13.4  c-1.2-6.9-0.9-16.1,1.5-26.6c18.4-37.3,59.1-143.2,55.8-162.1c-1.1-6.2-6-14.4-11.6-14.4c-0.3,0-0.7,0-1,0.1  c-8.8,1.6-31.5,51.3-55.3,122.7c-11.1,33-16.6,51.4-17.9,67.7c-12.6,12.9-29.9,29.1-47.9,39c1.3-16.5,10.2-33.9,7.8-47.8  c-1-5.7-7.8-10.5-13.5-10.5c-0.6,0-1.1,0-1.6,0.1c-12,2.1-37.1,30.9-56.3,58.3c3.4-10.3,10.8-28.8,12.8-36c1.4-4.8,1.3-5.4,1.2-6  c-0.8-4.4-8-7.2-15.6-7.2c-1.7,0-3.4,0.1-5.1,0.4c-5.4,0.9-10.4,3.5-12.2,8.3c-2.7,7-5.1,13.8-7.3,20.3  c-12.3,13.3-31.6,33.3-51.9,45.7c-5.6,3.3-12.2,6.4-18.8,7.5c-1.9,0.3-3.9,0.5-5.7,0.5c-4.4,0-8.2-1.1-10.8-4.1  c22.1-9.1,47.5-26.9,44-46.7c-1.8-10.1-9.3-15.4-21-15.4c-2.6,0-5.3,0.3-8.2,0.8c-18.6,3.3-39,19.8-47,39  c-13.2,13.9-30.4,31.1-48.1,45.6c1.5-6.1,2.7-12.5,3.8-19.2c3-17.7,7.5-33.1,6.6-37.8c-0.8-4.8-7.4-6.3-13.2-6.3  c-1.8,0-3.6,0.2-5.1,0.4c-5.4,0.9-9.4,3.6-10.9,8.1l-7.3,22.7c-4.4,13.8-23.6,35.3-32.1,36.8c-0.6,0.1-1.1,0.2-1.7,0.2  c-4.5,0-6.8-3.7-7.5-8c-0.7-4.1-0.2-8.7,1.3-11.3c13.1-4.6,37.4-21.5,34.6-37.6c-0.7-3.9-4.2-8.2-10.8-8.2c-0.9,0-1.9,0.1-2.9,0.3  c-10.7,1.9-27.4,17.2-39,35c-13.5,14.3-32,33.1-51,48.7c1.5-6.1,2.7-12.5,3.8-19.2c3-17.7,7.5-33.1,6.6-37.8  c-0.8-4.8-7.4-6.3-13.2-6.3c-1.8,0-3.6,0.2-5.1,0.4c-5.4,0.9-9.4,3.6-10.9,8.1l-7.4,22.7c-4.4,13.8-23.6,35.3-32.1,36.8  c-0.6,0.1-1.1,0.2-1.7,0.2c-4.5,0-6.8-3.7-7.5-8c-0.7-4.1-0.2-8.7,1.3-11.3c13.2-4.6,37.4-21.5,34.6-37.6c-0.7-3.9-4.2-8.2-10.8-8.2  c-0.9,0-1.9,0.1-2.9,0.3c-10.1,1.8-25.6,15.6-37,32.2c-9.2,8-18.5,13-28.5,14.8c-2.2,0.4-4.4,0.8-6.3,0.8c0.5-4.6,0.7-8.9-0.1-13.3  c-2.1-11.8-8.5-17.2-16.7-17.2c-1.2,0-2.5,0.1-3.7,0.3c-8.2,1.4-16.6,8.8-14.1,22.9c1.4,7.9,5.8,14.2,11.7,18.4  c-4.4,12.1-11.6,22.5-23.6,24.6c-0.8,0.1-1.6,0.2-2.3,0.2c-6.7,0-11.3-5.4-12.4-11.9c-2.4-13.5,7.3-26.9,16.5-33.4  c5.8-4,7.7-8.2,6.9-12.3c-0.7-3.8-2.8-5.7-5.6-5.7c-0.4,0-0.8,0-1.3,0.1c-21.4,3.8-52.4,33.9-46.8,66c2.3,13.3,12.1,23.2,28.5,23.2  c2.6,0,5.3-0.2,8.3-0.8c21.4-3.8,40.7-23.4,49.7-44.1c1.3,0.1,2.7,0.2,4.2,0.2c2.5,0,5-0.2,7.4-0.6c5.2-0.9,10.2-2.5,14.8-4.4  c-1.4,5.5-1.9,10.8-1.1,15.6c2,11.2,8.4,16.3,18.6,16.3c2.1,0,4.4-0.2,6.9-0.6c11.6-2.1,28.3-16.3,40.2-31.8  c-2,10.7-3.7,21.1-4.9,29.1c-21.6,26.5-37.7,62.2-34.4,81.1c1.4,7.8,5.3,11.1,11,11.1c1,0,2.1-0.1,3.2-0.3  c14.2-2.5,34.2-39.8,48.7-90.1c15.5-13.7,31-28.6,45.6-43.1c0,1.5,0.1,3.1,0.4,4.5c2,11.2,8.4,16.3,18.6,16.3c2.1,0,4.4-0.2,6.9-0.6  c11.6-2.1,28.3-16.3,40.2-31.8c-2,10.7-3.7,21.1-4.9,29.1c-21.6,26.5-37.7,62.2-34.4,81.1c1.4,7.8,5.3,11.1,11,11.1  c1,0,2.1-0.1,3.2-0.3c14.2-2.5,34.2-39.8,48.7-90.1c18.3-16.1,36.7-34,53.5-51c4.1,16.8,15,23.9,30.7,23.9c3.6,0,7.5-0.4,11.6-1.1  c23.8-4.2,45.5-20.2,70-43.4c-2.1,9.6-3.1,17.2-2.3,21.4c0.8,4.8,10.6,8.3,16.4,8.3c0.7,0,1.3,0,1.9-0.1c8.8-1.6,33.1-40.3,54-60.2  c-1.6,9.1-7.3,26.9-5.7,36.1c1.4,8.2,5.5,12,11.6,12c1,0,2-0.1,3.1-0.3c16.9-3,41.3-21,68.5-46.6c0.3,2.1,0.6,4.2,1,6.4  c2.6,15,15.5,23.4,28.5,23.4c1.7,0,3.4-0.1,5.1-0.4c24.6-4.3,39.9-24.2,47.3-43.1c0.1,0,0.1,0,0.2,0c3.5,0,7.3-0.4,11.3-1.1  c8.1-1.4,15.4-4.3,22-7.9c-2.2,9.6-3.1,17-2.3,21.6c1.4,7.9,3.8,13.9,14.1,13.9c1.9,0,4.2-0.2,6.7-0.7c15.4-2.7,33.5-16.3,52-43.9  c-2.8,8.3-5.2,18.1-4.1,24.7c0.8,4.6,3.3,7.7,8.4,7.7c0.8,0,1.7-0.1,2.7-0.3c19.6-3.4,48.9-26.9,81.3-59c2.9-2.1,5.8-4.5,8.5-7.2  c4.1,0.9,8.4,1.4,13.7,2.4c-2,8.8-10.6,24.6-9.2,32.8c1.4,8.2,5.5,12,11.6,12c1,0,2-0.1,3.1-0.3c11.6-2,33.5-18.9,53.1-36.4  c-0.2,2.7-0.2,5.4,0.2,7.9c2,11.2,8.4,16.3,18.6,16.3c2.1,0,4.4-0.2,6.9-0.7c11.6-2.1,28.3-16.3,40.2-31.8  c-2,10.7-3.7,21.1-4.9,29.1c-21.6,26.5-38.2,63.2-34.9,82.1c1.4,7.8,5.3,11.1,11,11.1c1,0,2.1-0.1,3.2-0.3  c14.2-2.5,34.9-41.2,49.3-92.1c8.9-8.4,17-16,23.6-22.7C1257.2,578.4,1257.3,575.5,1256.3,569.8z M614.3,845.4l-2.3,0.2  c-1.5,0.1-3.1-0.6-4-1.9l-12.9-17.1h-3.8V841c0,2.6-2.1,4.6-4.6,4.6c-2.5,0-4.6-2.1-4.6-4.6v-37.6c0-2.6,2.1-4.6,4.6-4.6  c2.6,0,4.6,2.1,4.6,4.6v14h3.8l12.6-16.8c0.9-1.2,2.3-1.8,3.7-1.8c2.5,0,4.6,2.1,4.6,4.6c0,0.9-0.3,1.9-0.9,2.8L603.2,822l10.7,14.2  c2.6-0.1,4.8,2.1,4.8,4.7C618.6,843.3,616.7,845.2,614.3,845.4z M666.9,845.6h-19.3c-2.6,0-4.6-2.1-4.6-4.6c0-1.5,0.7-2.9,1.9-3.8  v-33.8c0-2.6,2.1-4.6,4.6-4.6c2.6,0,4.6,2,4.6,4.6v33h9.1c0.8-1.1,2.1-1.9,3.7-1.9c2.6,0,4.6,2,4.6,4.6v1.9  C671.6,843.6,669.5,845.6,666.9,845.6z M701.4,845.6c-2.6,0-4.6-2.1-4.6-4.7v-33.9c-1.1-0.8-1.9-2.2-1.9-3.7c0-2.6,2.1-4.6,4.6-4.6  h1.9c2.6,0,4.6,2,4.6,4.6v37.6C706,843.6,703.9,845.6,701.4,845.6z M768,845.6h-2.8c-1.5,0-2.9-0.8-3.7-2.1L743.6,814v27.2  c0,2.4-2,4.4-4.4,4.4c-2.4,0-4.4-1.9-4.4-4.4v-38.2c0-2.4,1.9-4.4,4.4-4.4h2.8c1.5,0,2.9,0.8,3.8,2.1l17.9,29.5v-23.6  c-1.2-0.9-1.9-2.1-1.9-3.6c0-2.4,2-4.4,4.4-4.4h1.9c2.4,0,4.4,1.9,4.4,4.4v38.2C772.4,843.7,770.4,845.6,768,845.6z M833.5,844.8  c-0.2,0.1-5.1,1.1-13.3,1.1c-12.8,0-21.4-9.6-21.4-24c0-13.4,8.5-23.7,22.3-23.7c4.3,0,9.5,0.9,9.7,1c2.3,0.5,4,2.6,3.8,5l-0.2,1.9  c-0.3,2.4-2.2,4.2-4.6,4.2c-1.7,0-3.3-0.9-4.1-2.5c-1.4-0.2-3.1-0.3-4.6-0.3c-8.7,0-13.1,6.2-13.1,14.4c0,9.3,4.6,14.7,12.1,14.7  c3.1,0,5.7-0.1,7.5-0.3l-0.1-6.4h-0.9c-2.5,0-4.6-2.1-4.6-4.6s2.1-4.6,4.6-4.6h5.6c2.6,0,4.7,2.1,4.7,4.6v15  C837,842.5,835.6,844.2,833.5,844.8z M894.5,809.9c-1.5,0-2.9-0.7-3.8-1.9h-6.7v33c0,2.6-2,4.6-4.6,4.6c-2.6,0-4.6-2.1-4.6-4.6v-33  h-6.6c-0.9,1.1-2.2,1.9-3.8,1.9c-2.6,0-4.6-2.1-4.6-4.6v-1.9c0-2.6,2.1-4.6,4.6-4.6h30.1c2.6,0,4.6,2,4.6,4.6v1.9  C899.2,807.8,897.1,809.9,894.5,809.9z M989.2,844.8c-0.2,0.1-5.1,1.1-13.3,1.1c-12.8,0-21.4-9.6-21.4-24c0-13.4,8.5-23.7,22.3-23.7  c4.3,0,9.5,0.9,9.7,1c2.3,0.5,4,2.6,3.8,5l-0.2,1.9c-0.3,2.4-2.2,4.2-4.6,4.2c-1.7,0-3.3-0.9-4.1-2.5c-1.4-0.2-3.1-0.3-4.6-0.3  c-8.7,0-13.1,6.2-13.1,14.4c0,9.3,4.6,14.7,12.1,14.7c3.1,0,5.7-0.1,7.5-0.3l-0.1-6.4h-0.9c-2.5,0-4.6-2.1-4.6-4.6s2.1-4.6,4.6-4.6  h5.6c2.6,0,4.7,2.1,4.7,4.6v15C992.7,842.5,991.3,844.2,989.2,844.8z M1039.4,846c-12.6,0-19.9-7.7-19.9-21.4v-21.1  c0-2.6,2.1-4.6,4.6-4.6c2.6,0,4.6,2.1,4.6,4.6v21.1c0,10.9,5.6,12.1,10.6,12.1c5,0,10.7-1.3,10.7-12.1v-17.4  c-1.1-0.9-1.9-2.1-1.9-3.7c0-2.6,2.1-4.6,4.7-4.6h1.9c2.5,0,4.6,2.1,4.6,4.6v21.1C1059.4,837.4,1052.7,846,1039.4,846z   M1118.6,809.9c-1.5,0-2.9-0.7-3.8-1.9h-6.7v33c0,2.6-2,4.6-4.6,4.6c-2.6,0-4.6-2.1-4.6-4.6v-33h-6.6c-0.9,1.1-2.2,1.9-3.8,1.9  c-2.6,0-4.6-2.1-4.6-4.6v-1.9c0-2.6,2.1-4.6,4.6-4.6h30.1c2.6,0,4.6,2,4.6,4.6v1.9C1123.2,807.8,1121.1,809.9,1118.6,809.9z"/>
</svg></svg>
