<?xml version="1.0" encoding="utf-8"?>
<svg xmlns="http://www.w3.org/2000/svg" version="1.1" width="640" height="480" viewBox="0 0 640 480"><svg xmlns:xlink="http://www.w3.org/1999/xlink" version="1.1" id="Ebene_1" x="0" y="-80" viewBox="0 0 1280 1280" style="enable-background:new 0 0 1280 1280;" xml:space="preserve" width="640" height="640">
<style type="text/css">
	.st0{fill:#FF0000;}
</style>
<path d="M153.8,529.3v-37.7H5.5v37.7h50v154.4H104V529.3H153.8z M302.7,683.6v-93.3c0-13.6-1.4-20.7-3.8-26.9  c-1.5-4.2-3.8-8.1-6.8-11.4c-4.6-5.2-15.5-14.1-34.6-14.1c-11.6,0.1-22.9,4-32.1,11.2c-2.9,2.3-5.7,4.8-8.1,7.6l-0.3-65h-41.9v192.1  h41.9v-70.8c0-19.6,1.1-29.3,10.1-35.6c3.7-2.4,8.1-3.7,12.5-3.8c4.2,0,8.3,1.2,11.7,3.5c10.3,7.1,9.8,21.5,9.8,32.4v74.3H302.7z   M466.2,683.6V541.6h-41.7V630c0.1,3.7-0.4,7.4-1.7,10.9c-1.9,5.2-9,12.8-22.3,12.8c-4.3,0.1-8.6-1.1-12.2-3.3  c-7.6-4.6-8-11.4-8-20.4v-88.5h-42.1v84.6c0,17.4-1.4,40.2,14.4,52.8c11.2,8.7,26.9,8.7,30.2,8.7c12.6,0.2,24.9-3.7,35.1-11.2  c2.2-1.9,4.3-4,6.3-6.3v13.3L466.2,683.6z M585.1,577v-37.1c-8.4,0.6-16.7,2.5-24.5,5.7c-6.1,2.5-11.8,6.1-16.6,10.6v-14.7h-40.6  v142.1h41.6v-80c0-10.6,1.9-17.7,13.1-21.5c4.3-1.4,8.6-2.4,13.1-3L585.1,577z M733.4,677.9V541.6h-39.5v13c-2.4-2.6-5.1-4.8-8-6.8  c-8.9-5.8-19.3-8.9-29.9-8.7c-8.9-0.1-17.6,1.6-25.8,4.9c-14.4,6.5-34.6,26.4-34.6,64.5c0,55.2,35.6,68.6,58.8,68.6  c9.6-0.1,19.1-2.2,27.8-6.3c3.3-1.8,6.5-3.8,9.5-6l0.3,15.5c0,7.6,0,15.3-6.3,20.7c-6.3,5.4-17.4,5.7-18.8,5.7  c-11.2,0-17.1-3.8-20.4-7.6c-4.6-4.9-4.9-9-5.3-15.5h-43.3c0,4.3-0.8,17.4,7.1,28.9c1.7,2.6,3.9,4.8,6.3,6.8  c8.2,6.8,25.6,15.3,51.7,15.3c4.1,0,32.1,0,50.3-11.7c11.4-7.4,18.7-19.9,19.6-33.5C733.1,685.5,733.4,681.7,733.4,677.9  L733.4,677.9z M691.7,608.3c0,10.3-1.1,24-9.5,31.6c-4.6,3.8-10.6,5.7-16.6,5.3c-22.9,0-25.3-19.3-26.1-26.4  c-0.3-3.3-0.5-6.8-0.5-10.3c0-1.1-1.1-25,12-34.3c3.9-2.4,8.3-3.7,12.8-3.8c13.6-0.6,20.7,6.5,23.4,11.2  C690.9,588.4,691.7,601.1,691.7,608.3z M888.9,683.6c-3.5-5.2-4.1-9.8-4.1-22v-83c0.2-5.4-0.8-10.8-3-15.8  c-9.5-20.4-36.5-25-56.3-25c-6.1,0-12.2,0.3-18.2,1.1c-4.9,0.8-20.4,3-32.1,14.4c-10.6,10.6-10.9,22.9-11.4,28.6h41.9  c0.4-2.2,1-4.3,1.9-6.3c2.2-4.6,8-10.3,20.1-10.3c15.3,0,16,12.2,16,17.1v8c-26.9,4.9-46.3,8.7-56.9,13.3  c-6.3,2.7-29.1,15-29.1,40.5c0,6.9,1.6,13.7,4.6,19.9c4.6,9.5,16.3,23.4,41.9,23.4c12.4,0.1,24.6-3.6,34.8-10.6c3-1.9,5.7-3.8,8.7-6  v12.8H888.9z M843.6,615.6c0,13.3-0.5,26.6-12.8,35.4c-4.7,3.4-10.2,5.4-16,5.7c-5.9,0.2-11.5-2.9-14.4-8c-1-2.1-1.5-4.3-1.6-6.5  c0-5.3,2.7-11.4,13.1-15.8c1.6-0.7,3.2-1.4,4.9-1.9L843.6,615.6z M1046.3,683.6V541.6h-41.6V630c0.2,3.7-0.4,7.4-1.6,10.9  c-1.9,5.2-9,12.8-22.3,12.8c-4.3,0.1-8.6-1.1-12.2-3.3c-7.6-4.6-8-11.4-8-20.4v-88.5h-42.1v84.6c0,17.4-1.4,40.2,14.4,52.8  c11.2,8.7,26.9,8.7,30.2,8.7c12.6,0.2,24.9-3.7,35.1-11.2c2.2-1.9,4.3-4,6.3-6.3v13.3L1046.3,683.6"/>
<path class="st0" d="M1149.7,464.1c16-2,28.9,8,40.8,8c12,0,24.9-10,40.8-8c33,4,51.7,40.3,39.2,79.1  c-14.1,43.7-30.6,70.6-57.2,67.3c-9.7-1.2-17.5-5-22.8-5c-5.3,0-13.1,3.8-22.8,5c-26.6,3.3-43.1-23.6-57.2-67.3  C1098,504.4,1116.7,468.1,1149.7,464.1"/>
<path class="st0" d="M1190.5,462.7c-5.3-13.3-5.8-28.1,1.4-40.5c7.2-12.4,20.3-19.4,34.4-21.3c5.3,13.3,5.8,28.1-1.4,40.5  C1217.8,453.8,1204.6,460.8,1190.5,462.7"/>
<path d="M97.4,842c-4.1-2-9.5-1.9-19-1.9h-8.5v24h16.9c5,0,10.6,0.3,14.5-4.1c1.8-1.9,2.7-4.5,2.5-7.1C104,848.2,101.5,844,97.4,842  z M98.1,812.9c-3.9-4.8-11-4.3-16.4-4.3H69.9v20.1h5.3c4,0,8,0,12.1-0.2c3.8,0.2,7.4-1.1,10.2-3.7c1.7-1.7,2.6-3.9,2.5-6.3  C100.1,816.5,99.4,814.5,98.1,812.9L98.1,812.9z M108.7,873.3c-7.1,4-14.3,3.7-22.1,3.7H54.9v-80.8h29c4,0,8.1,0,12.1,0.3  c5.5,0.3,10.6,2.6,14.4,6.5c3.3,3.5,5.2,8.1,5.2,12.9c0.1,5.8-2.6,11.2-7.3,14.5c-1.9,1.1-3.9,1.9-6.1,2.2c2.2,0.4,4.2,1.1,6.2,2.2  c7.1,3.7,11.4,11.1,11,19.1C119.8,861.9,115.7,869.4,108.7,873.3L108.7,873.3z"/>
<path d="M242.4,818.6c-3.8-6.7-11-10.8-18.8-10.6c-3.6,0-7.1,0.8-10.3,2.4c-5.7,3.1-12.8,10.6-12.8,25.8c0,3.1,0,18,11.4,25.4  c3.5,2.3,7.7,3.5,11.9,3.4c3.2,0,6.4-0.6,9.3-1.9c6-2.7,13.7-9.6,14.1-24.8C247.5,831.3,245.9,824.5,242.4,818.6z M251.2,867.5  c-3.8,4.1-8.5,7.3-13.7,9.3c-4.5,1.6-9.3,2.4-14.1,2.3c-10.7,0.4-20.9-4.2-27.7-12.5c-7.2-8.3-11-18.9-10.6-29.9  c0-5.3,0.8-10.6,2.4-15.7c6.2-20.1,27.6-31.4,47.7-25.2c6.7,2.1,12.6,5.9,17.3,11.1c7,8.3,10.6,18.9,10.1,29.7  C262.7,847.9,258.7,858.9,251.2,867.5z"/>
<path d="M375.4,815.1c-2.5-2.1-5.4-3.5-8.5-4.3c-4.3-0.9-8.7-1.2-13-0.9h-8v53.6h4c5.5,0.2,11.1-0.1,16.6-0.7  c4.6-0.5,8.9-2.8,11.9-6.3c5-6.4,4.8-18.2,4.8-19.2C383.2,825.1,379.5,818.8,375.4,815.1z M376.3,874.8c-6.4,1.8-13.1,2.5-19.8,2.2  h-25.7v-80.8h29c3.9,0,7.8,0.3,11.7,0.9c7.7,1.6,14.6,5.9,19.5,12.1c5.8,8.2,8.7,18,8.4,28.1C399.2,853.3,393,869.5,376.3,874.8  L376.3,874.8z"/>
<polygon points="467.6,877 467.6,796.2 525,796.2 525,809.7 482.4,809.7 482.4,828.7 521.5,828.7 521.5,841.7 482.4,841.7   482.4,863.4 527.9,863.4 527.9,877 "/>
<polygon points="643.7,877 608.3,820.3 609.2,877 594.5,877 594.5,796.2 608.1,796.2 643.9,853.2 642.1,796.2 657,796.2 657,877 "/>
<path d="M785.5,870.7c-9.7,8.3-22.8,8.4-26.4,8.4c-4.8,0-20.3-0.2-31.5-12c-1.5-1.6-2.8-3.4-3.9-5.3l12.7-8.8  c3.5,5.3,10.2,12.1,25.1,12.1c2,0,4-0.2,6-0.6c1.7-0.3,9.6-2.5,9.6-10.1c0-1.7-0.5-3.4-1.5-4.8c-2.7-3.7-10.1-4.7-14.1-5.6l-9.6-2.2  c-4.2-0.7-8.3-2-12.2-3.8c-7.2-3.4-11.7-10.8-11.6-18.8c0-4.2,1-8.3,3.1-11.9c3.7-6.2,12.5-13.3,28.9-13.3  c12.9-0.4,25.2,5.8,32.6,16.4l-12.5,9.3c-4.2-7.6-12.3-12.2-20.9-12c-0.8,0-11,0-14.3,6.2c-0.6,1.1-0.9,2.4-0.9,3.7  c0,1.3,0.4,2.6,1,3.7c1.9,3.3,6.4,4.3,13.8,6l8.4,1.8c7.7,1.7,16.1,4,21.5,10.3c3.4,3.7,5,8.6,4.7,13.6  C793.7,859.8,790.8,866.4,785.5,870.7z"/>
<polygon points="861.3,877 861.3,796.2 918.7,796.2 918.7,809.7 876.2,809.7 876.2,828.7 915.2,828.7 915.2,841.7 876.2,841.7   876.2,863.4 921.6,863.4 921.6,877 "/>
<polygon points="987.7,877 987.7,796.2 1045.2,796.2 1045.2,809.7 1002.6,809.7 1002.6,828.7 1041.6,828.7 1041.6,841.7   1002.6,841.7 1002.6,863.4 1048.1,863.4 1048.1,877 "/>
</svg></svg>
