<?xml version="1.0" encoding="utf-8"?>
<svg xmlns="http://www.w3.org/2000/svg" version="1.1" width="640" height="480" viewBox="0 0 640 480"><svg xmlns:xlink="http://www.w3.org/1999/xlink" version="1.1" id="Ebene_1" x="0" y="-80" viewBox="0 0 1280 1280" style="enable-background:new 0 0 1280 1280;" xml:space="preserve" width="640" height="640">
<style type="text/css">
	.st0{fill:#618B29;}
	.st1{fill:#C50E1F;}
	.st2{fill:#00099A;}
</style>
<path class="st0" d="M22.9,828.8c-0.2,5.1,3.9,9.4,9,9.5c0.2,0,0.4,0,0.5,0c3,0.2,5.9-1.2,7.7-3.5h17.4c-3.9,10.6-14,15.4-25.1,15.4  c-15.6,0-27.3-9.2-27.3-25.5c-0.4-13.8,10.5-25.4,24.4-25.8c0.5,0,0.9,0,1.4,0c19.3,0,27.7,10.8,27.7,29.8L22.9,828.8z M40.8,819.1  c0.1-4.4-3.4-8.1-7.9-8.2c-0.1,0-0.2,0-0.3,0c-4.9-0.4-9.2,3.2-9.6,8.1c0,0,0,0.1,0,0.1H40.8z"/>
<path class="st0" d="M66.4,800.2h17.9v6.3h0.2c3.6-5.1,9.7-7.9,15.9-7.4c8.7-0.6,16.2,6,16.7,14.6c0,0.6,0,1.3,0,1.9v33.2H98.6  v-25.4c0-5.6-0.7-9.6-6.1-9.6c-3.2,0-7.4,1.6-7.4,9.4v25.6H66.4L66.4,800.2L66.4,800.2z"/>
<path class="st0" d="M149.8,800.2h10v11.6h-10v17c0,4.5,1,6.5,5.7,6.5c1.4,0,2.8-0.1,4.2-0.3v13.9c-3.9,0-8,0.6-11.9,0.6  c-7.7,0-16.7-1.2-16.7-14.6v-23.1h-8.2v-11.6h8.2v-14.8h18.6L149.8,800.2L149.8,800.2z"/>
<path class="st0" d="M216.3,848.9h-17.9v-5.2l0,0c-2.3,3.1-5.2,6.6-14.3,6.6c-13.8,0-20.5-13.6-20.5-25.9c0-11.6,4.4-25.4,20.8-25.4  c5.3-0.1,10.3,2.3,13.4,6.6l0,0v-23.7h18.6V848.9z M190.2,812.4c-6.7,0-8.2,6.3-8.2,12s1.5,12.1,8.2,12.1s8.2-6.3,8.2-12.1  C198.3,818.6,196.8,812.4,190.2,812.4z"/>
<path class="st0" d="M242.3,828.8c-0.1,5.1,3.9,9.4,9,9.5c0.2,0,0.3,0,0.5,0c3,0.1,5.8-1.2,7.7-3.5h17.4  c-3.9,10.6-14,15.4-25.1,15.4c-15.4,0-27.3-9.2-27.3-25.5c-0.4-13.8,10.5-25.4,24.4-25.8c0.5,0,0.9,0,1.4,0  c19.3,0,27.7,10.8,27.7,29.8L242.3,828.8z M260.2,819.1c0.1-4.4-3.4-8.1-7.9-8.2c-0.1,0-0.2,0-0.3,0c-4.9-0.4-9.2,3.2-9.6,8.1  c0,0,0,0.1,0,0.1H260.2z"/>
<path class="st0" d="M317.3,818.8c-0.1-1.7-0.8-3.4-2-4.6c-1.3-1.1-3-1.7-4.7-1.6c-7.1,0-8.2,6.2-8.2,12.1c0,5.9,1,12,8.2,12  c3.9-0.1,7.1-3.2,7.3-7.1h17.8c-1.8,13.2-12.2,20.7-25.4,20.7c-13.9,0.7-25.7-10-26.4-23.9c0-0.5,0-1.1,0-1.7  c-0.3-13.9,10.8-25.4,24.7-25.7c0.6,0,1.1,0,1.7,0c12.8,0,23.7,6.3,24.8,19.8L317.3,818.8z"/>
<polygon class="st0" points="343.7,781.9 362.3,781.9 362.3,814.3 374.2,800.2 395.2,800.2 377.8,818.7 397.9,849 375.6,849   365.6,831.4 362.3,834.9 362.3,849 343.7,849 343.7,781.9 "/>
<path class="st0" d="M416.5,828.8c-0.2,5.1,3.9,9.4,9,9.5c0.2,0,0.3,0,0.5,0c3,0.1,5.8-1.2,7.7-3.5h17.5  c-3.9,10.6-14,15.4-25.1,15.4c-15.6,0-27.4-9.2-27.4-25.5c-0.4-13.8,10.5-25.4,24.4-25.8c0.5,0,0.9,0,1.4,0  c19.3,0,27.8,10.8,27.8,29.8L416.5,828.8z M434.4,819.1c0.1-4.4-3.4-8.1-7.9-8.2c-0.1,0-0.2,0-0.3,0c-4.9-0.5-9.2,3.1-9.6,8  c0,0.1,0,0.1,0,0.2H434.4z"/>
<path class="st0" d="M460,800.2h18.1v6.3l0,0c3.6-5.1,9.7-7.9,15.9-7.4c8.7-0.6,16.1,6,16.7,14.7c0,0.6,0,1.3,0,1.9v33.2h-18.6  v-25.4c0-5.6-0.7-9.6-6.1-9.6c-3.2,0-7.4,1.6-7.4,9.4v25.6H460L460,800.2L460,800.2z"/>
<path class="st1" d="M562,828.8c-0.2,5.1,3.9,9.4,9,9.5c0.2,0,0.4,0,0.5,0c3,0.2,5.9-1.2,7.7-3.5h17.4c-3.9,10.6-14,15.4-25.1,15.4  c-15.6,0-27.4-9.2-27.4-25.5c-0.4-13.8,10.5-25.4,24.4-25.8c0.5,0,0.9,0,1.4,0c19.3,0,27.8,10.8,27.8,29.8L562,828.8z M579.8,819.1  c0.1-4.4-3.4-8.1-7.9-8.2c-0.1,0-0.2,0-0.3,0c-4.9-0.4-9.2,3.2-9.6,8.1c0,0,0,0.1,0,0.1H579.8z"/>
<path class="st1" d="M605.5,800.2h17.9v7.7h0.2c2.2-5.6,7.7-9.2,13.7-9c1.8,0,3.7,0.3,5.5,0.8v16.4c-2.3-0.9-4.8-1.3-7.4-1.2  c-7.1,0.1-11.3,4.5-11.3,14.7v19.3h-18.6V800.2z"/>
<polygon class="st1" points="647.6,781.9 666.3,781.9 666.3,849 647.6,849 647.6,781.9 "/>
<path class="st1" d="M692.6,828.8c-0.1,5.1,3.9,9.4,9,9.5c0.2,0,0.3,0,0.5,0c3,0.1,5.8-1.2,7.7-3.5h17.4  c-3.9,10.6-14,15.4-25.1,15.4c-15.6,0-27.4-9.2-27.4-25.5c-0.4-13.8,10.5-25.4,24.4-25.8c0.5,0,0.9,0,1.4,0  c19.3,0,27.7,10.8,27.7,29.8L692.6,828.8z M710.4,819.1c0.1-4.4-3.4-8.1-7.8-8.2c-0.1,0-0.2,0-0.4,0c-4.9-0.4-9.2,3.2-9.6,8.1  c0,0,0,0.1,0,0.1H710.4z"/>
<path class="st1" d="M736.1,781.9h18.6v23.7l0,0c3.1-4.3,8.1-6.7,13.4-6.6c16.3,0,20.8,13.9,20.8,25.4c0,12.2-6.7,25.9-20.5,25.9  c-9.1,0-11.9-3.5-14.3-6.6l0,0v5.2h-17.9V781.9z M762.2,812.7c-6.7,0-8.2,6.3-8.2,12s1.5,12.1,8.2,12.1c6.7,0,8.2-6.3,8.2-12.1  C770.4,818.9,768.9,812.7,762.2,812.7z"/>
<path class="st1" d="M812.8,828.8c0.1,5.4,4.6,9.7,10,9.5c2.8-0.1,5.5-1.4,7.3-3.5h17.4c-3.9,10.6-14,15.4-25.1,15.4  c-15.4,0-27.3-9.2-27.3-25.5c-0.4-13.8,10.6-25.4,24.4-25.7c0.5,0,0.9,0,1.4,0c19.3,0,27.7,10.8,27.7,29.8H812.8z M830.7,819.1  c0.1-4.4-3.4-8.1-7.9-8.2c-0.1,0-0.2,0-0.3,0c-4.9-0.3-9.1,3.3-9.4,8.2c0,0,0,0,0,0H830.7z"/>
<path class="st1" d="M856.3,800.2h18v6.3l0,0c3.6-5.1,9.7-7.9,15.9-7.4c8.7-0.6,16.2,6,16.7,14.6c0,0.6,0,1.3,0,1.9v33.2h-18.5  v-25.4c0-5.6-0.7-9.6-6.1-9.6c-3.2,0-7.4,1.6-7.4,9.4v25.6h-18.6V800.2z"/>
<polygon class="st2" points="1007.5,849 988.4,849 981.4,819 981.2,819 973.9,849 954.8,849 939.6,800.2 959,800.2 966.2,830.4   966.4,830.4 972.6,800.2 990,800.2 996.5,830.4 996.9,830.4 1003.7,800.2 1023,800.2 1007.5,849 "/>
<path class="st2" d="M1046.4,795h-18.6v-13.1h18.6V795z M1027.7,800.2h18.6v48.6h-18.6V800.2z"/>
<path class="st2" d="M1085.2,814.5c-0.1-1.6-0.9-3-2.2-3.9c-1.2-0.9-2.6-1.4-4.1-1.4c-2.6,0-5.6,0.5-5.6,3.9c0,1.4,1.1,2.1,2.2,2.5  c3.1,1.3,10.1,1.7,16.4,3.9c6.2,2.2,11.6,5.7,11.6,13.6c0,13.6-13,17.2-24.8,17.2s-24.1-4.6-24.4-17.2h17.8c0.1,1.7,0.9,3.3,2.2,4.3  c1.5,1,3.2,1.5,5,1.4c2.4,0,6.3-0.9,6.3-3.9c0-2.9-1.6-3.7-10.2-5.2c-14.2-2.4-19.9-7-19.9-15.4c0-12.3,13.2-15.4,23.1-15.4  c10.5,0,23.1,2.9,23.7,15.4L1085.2,814.5z"/>
<path class="st2" d="M1139.2,814.5c-0.1-1.6-0.9-3-2.2-3.9c-1.2-0.9-2.6-1.4-4.1-1.4c-2.6,0-5.6,0.5-5.6,3.9c0,1.4,1.1,2.1,2.2,2.5  c3.1,1.3,10.1,1.7,16.3,3.9c6.2,2.2,11.6,5.7,11.6,13.6c0,13.6-13,17.2-24.8,17.2s-24.1-4.6-24.4-17.2h17.8c0.1,1.7,0.9,3.3,2.2,4.3  c1.5,1,3.2,1.5,5,1.4c2.4,0,6.3-0.9,6.3-3.9c0-2.9-1.6-3.7-10.2-5.2c-14.2-2.4-19.9-7-19.9-15.4c0-12.3,13.2-15.4,23.1-15.4  c10.5,0,23.1,2.9,23.7,15.4L1139.2,814.5z"/>
<path class="st2" d="M1180.7,828.8c0,5.4,4.4,9.8,9.8,9.8c3,0,5.8-1.4,7.7-3.8h17.4c-3.9,10.6-14,15.4-25.1,15.4  c-15.4,0-27.4-9.2-27.4-25.5c-0.4-13.8,10.5-25.4,24.4-25.8c0.5,0,0.9,0,1.4,0c19.3,0,27.8,10.8,27.8,29.8L1180.7,828.8z   M1198.5,819.1c0.1-4.4-3.4-8.1-7.9-8.2c-0.1,0-0.1,0-0.2,0c-4.9-0.4-9.2,3.2-9.6,8.1c0,0,0,0.1,0,0.1H1198.5z"/>
<path class="st2" d="M1224.2,800.2h17.9v6.3l0,0c3.6-5.1,9.7-7.9,15.9-7.4c8.7-0.6,16.1,6,16.7,14.7c0,0.6,0,1.3,0,1.9v33.2h-18.6  v-25.4c0-5.6-0.7-9.6-6.1-9.6c-3.2,0-7.4,1.6-7.4,9.4v25.6H1224v-48.6H1224.2z"/>
<path class="st0" d="M594.3,464.3c0,19.1-15.5,34.7-34.7,34.7c-19.1,0-34.7-15.5-34.7-34.7s15.5-34.7,34.7-34.7  C578.8,429.7,594.3,445.2,594.3,464.3z"/>
<path class="st2" d="M594.3,567.1c0,19.1-15.5,34.7-34.7,34.7c-19.1,0-34.7-15.5-34.7-34.7s15.5-34.7,34.7-34.7  C578.8,532.5,594.3,548,594.3,567.1z"/>
<path class="st1" d="M668.1,515.7c0,19.1-15.5,34.7-34.7,34.7s-34.7-15.5-34.7-34.7c0-19.1,15.5-34.7,34.7-34.7  S668.1,496.6,668.1,515.7z"/>
<path d="M31.4,755.3c9.4,0.4,18.6-2.8,25.6-9c6.5-5.8,10.1-14.2,9.8-22.9c0-3.4-0.5-6.8-1.7-10c-1-2.9-2.5-5.7-4.4-8.1  c-1.9-2.4-4-4.6-6.3-6.5c-2.4-2.1-5-4-7.7-5.7c-2.7-1.7-5.4-3.4-8-5c-2.7-1.6-5.2-3.3-7.7-5c-2.3-1.6-4.4-3.3-6.4-5.2  c-1.9-1.8-3.4-3.9-4.5-6.2c-1.1-2.3-1.7-4.9-1.7-7.5c-0.1-5.1,2.2-9.9,6.2-13.1c4.8-3.7,10.7-5.5,16.7-5.2c6.3,0,12.5,0.9,18.6,2.7  l2.7-10.9c-6.9-1.9-14-2.9-21.1-2.9c-9.2-0.4-18.3,2.6-25.5,8.3c-6.5,5.4-10.1,13.4-9.9,21.8c0,3.3,0.5,6.6,1.7,9.7  c1,2.8,2.5,5.4,4.4,7.7c1.9,2.3,4.1,4.5,6.4,6.4c2.4,2,5,3.9,7.7,5.5l8,5c2.6,1.6,5.1,3.3,7.7,5.1c2.3,1.6,4.4,3.5,6.4,5.4  c1.8,1.9,3.4,4,4.5,6.4c1.1,2.4,1.7,5,1.7,7.7c0.1,5.5-2.3,10.8-6.7,14.2c-4.7,3.8-10.7,5.8-16.7,5.6c-7.9,0-15.6-2-22.6-5.7  l-4.4,10.8C12.8,753.1,22.1,755.3,31.4,755.3L31.4,755.3z M88,682.7v49.6c0,15.1,7.3,22.6,21.8,22.6c6.7,0.1,13.3-1.5,19.3-4.5  l-3.5-10.1c-4.2,2.2-9,3.4-13.7,3.4c-3.5,0.4-7-1.1-9.2-3.9c-2-3.8-2.8-8-2.5-12.2v-44.9h26.3v-10.3h-26.3V657h-2.4l-22.5,23.1v2.5  L88,682.7z M145,752.6c1.5,1.6,3.5,2.4,5.7,2.4c2.2,0,4.3-0.8,5.8-2.4c1.6-1.5,2.5-3.6,2.4-5.8c0-2.2-0.8-4.3-2.4-5.8  c-1.5-1.6-3.7-2.4-5.9-2.3c-2.1,0-4.2,0.8-5.7,2.3c-1.5,1.5-2.4,3.6-2.3,5.8C142.6,749,143.4,751.1,145,752.6z M191.9,739.1  c10,10.9,23.8,16.3,41.3,16.3c5.8,0,11.5-0.5,17.2-1.5c5.3-0.8,10.4-2.1,15.4-3.9v-51h-12.2v42c-6.6,1.6-13.4,2.5-20.2,2.6  c-5.6,0.1-11.2-1-16.4-3c-5.1-2-9.8-5-13.8-8.8c-4.4-4.3-7.7-9.6-9.7-15.4c-2.5-7-3.8-14.5-3.6-22c0-15.4,3.9-27.3,11.7-35.8  c8.3-8.5,20-13.1,31.9-12.5c9.5,0.2,19,1.8,28.1,4.5l3.1-10.9c-10.3-3.4-21.1-5.1-32-5.2c-7.5-0.1-15,1.2-22.1,3.9  c-6.6,2.5-12.6,6.4-17.6,11.3c-5.2,5.3-9.3,11.8-11.8,18.8c-2.9,8.2-4.4,16.9-4.3,25.6C176.9,713.2,181.9,728.2,191.9,739.1  L191.9,739.1z M293,748.8c4.6,4.4,10.8,6.7,17.1,6.4c9.5,0,18.4-4.7,23.9-12.4V753h11.6v-56.4c0-9-2.4-15.6-7.3-19.9  c-5.8-4.6-13.2-6.8-20.6-6.4c-9.4,0.1-18.6,2.3-27,6.6l3.9,9.7c6.8-3.6,14.4-5.7,22.2-6c4.7-0.4,9.4,1.1,12.9,4.3  c2.9,3.8,4.3,8.6,3.9,13.4v7.5c-15.9,0.2-27.7,2.3-35.6,6.5c-7.4,3.7-12,11.5-11.6,19.8C286.2,738.4,288.6,744.4,293,748.8z   M307.1,719.3c8.7-3,17.8-4.3,27-3.9v16.3c-5.9,8.4-12.9,12.6-20.9,12.6c-3.8,0.3-7.5-0.9-10.5-3.3c-2.6-2.5-4-6-3.9-9.5  c-0.1-5.3,3.2-10.2,8.2-12L307.1,719.3z M383.3,753V626h-11.7V753H383.3z M422.7,753V626h-11.6V753H422.7z M453.3,744.4  c6.4,7.1,15.7,10.7,27.8,10.7c10.1,0,20-2.4,28.9-7.1l-4.2-9.4c-7.2,3.9-15.3,6-23.5,6.3c-17.2,0-26.2-9.9-27-29.7h56.1  c0.2-2.6,0.3-5.1,0.3-7.5c0-3.5-0.3-7-0.8-10.5c-0.7-4.9-2.3-9.6-4.8-13.9c-2.4-4-5.9-7.3-10.1-9.3c-4.8-2.3-10.1-3.4-15.4-3.3  c-10.4-0.6-20.4,3.7-27.1,11.6c-6.4,7.7-9.5,18.2-9.5,31.7s3.2,23.6,9.6,30.8L453.3,744.4z M463.2,686.7c4.3-4.3,10.3-6.6,16.4-6.3  c5.6-0.4,11.1,1.8,14.9,6c3.7,5.4,5.6,12,5.1,18.6h-43.9c0.6-6.7,3.3-13,7.7-18L463.2,686.7z M544.4,753v-55.4  c7.7-10.7,16.8-16.1,27.2-16.1c4.5-0.4,9,1.3,12.2,4.5c2.9,4.1,4.3,9.2,3.9,14.2v52.9h11.6v-54.5c0.5-7.5-1.6-15-6.2-21.1  c-4.6-5-11.3-7.7-18.2-7.2c-12,0.2-23.3,5.8-30.8,15.2v-13.2h-11.7v80.9L544.4,753z M652.9,753.8c13.3,0,23.4-2.8,30.2-8.3  c6.9-5.9,10.7-14.7,10.2-23.7c0.1-4.4-0.6-8.7-2.1-12.8c-1.2-3.4-3.2-6.5-5.8-9c-2.3-2.1-4.9-3.9-7.7-5.3c-2.7-1.4-5.6-2.4-8.6-3  c5.5-1.9,10.1-5.7,13.1-10.8c3.1-5.1,4.7-11,4.6-17c0.4-7.9-3-15.4-9.2-20.3c-6.1-4.9-15-7.3-26.6-7.3c-6.6,0-14.3,0-23.1,0.5v116.2  c10.7,0.5,19,0.8,25,0.8L652.9,753.8z M640,697.6h12.4c7.5-0.5,14.9,1.7,21,6.2c5,4.3,7.7,10.7,7.4,17.3c0.4,6.3-2.2,12.4-7,16.4  c-5.9,4.2-13,6.2-20.2,5.7c-3.9,0-8.2-0.3-13.6-0.8C640,742.4,640,697.6,640,697.6z M640,647.3c3.7-0.3,6.8-0.5,9.8-0.5  c6.7-0.5,13.4,1.3,18.9,5c4.2,3.4,6.5,8.7,6.2,14.1c0.2,5.9-1.9,11.6-5.9,15.9c-4.2,4.2-9.9,6.5-15.9,6.2H640  C640,688.1,640,647.3,640,647.3z M718.5,743.6c7.2,7.8,17.4,12.1,28,11.6c10.5,0.5,20.8-3.8,27.9-11.6c7.3-8.7,11-19.7,10.4-31  c0.6-11.3-3.1-22.4-10.4-31c-7.1-7.8-17.3-12-27.9-11.6c-10.6-0.5-20.8,3.7-28,11.6c-7.3,8.7-11,19.8-10.4,31.1  C707.5,723.8,711.2,734.9,718.5,743.6L718.5,743.6z M727.4,689.3c4.7-5.8,11.8-9,19.3-8.7c7.4-0.3,14.4,2.9,19,8.7  c5,6.6,7.5,14.8,7.1,23.1c0.4,8.3-2.1,16.5-7.1,23.1c-4.7,5.7-11.7,8.8-19,8.5c-7.4,0.3-14.5-2.8-19.3-8.5c-5-6.6-7.5-14.8-7.1-23.1  C719.9,704.1,722.4,695.9,727.4,689.3L727.4,689.3z M807.9,744c4.9,7.1,13,11.2,21.6,10.9c9.6,0,18.7-4.4,27.3-13.3v11.6h11.6V626.1  h-11.6v46.8c-6.3-1.8-12.9-2.8-19.5-2.9c-7.3-0.1-14.5,2.1-20.4,6.4c-5.7,4.2-10.2,9.9-12.7,16.5c-2.8,7.2-4.2,14.9-4.1,22.6  c-0.5,10.1,2.3,20.2,8,28.6L807.9,744z M813.7,702c1-3.8,2.5-7.4,4.6-10.7c2.1-3.2,4.9-5.9,8.3-7.7c3.7-1.9,7.8-2.9,11.9-2.8  c6.2,0.1,12.4,1.3,18.3,3.3v45.5c-3.1,4.3-7,7.9-11.6,10.7c-3.7,2.4-8,3.7-12.4,3.9c-4.2,0.1-8.4-1.4-11.6-4.2  c-3.2-2.9-5.6-6.6-6.9-10.7c-1.5-4.7-2.2-9.5-2.2-14.4c0-4.2,0.5-8.4,1.6-12.5L813.7,702z M899.1,744.3c6.4,7.1,15.6,10.7,27.8,10.7  c10.1,0,20-2.4,28.9-7.1l-4-9.1c-7.3,3.9-15.4,6-23.7,6.1c-17.2,0-26.2-9.9-27-29.7h56.3c0.2-2.6,0.3-5.1,0.3-7.5  c0-3.5-0.3-7-0.8-10.5c-0.8-4.9-2.4-9.6-4.9-13.9c-2.4-4-5.9-7.2-10.1-9.3c-4.8-2.3-10.1-3.4-15.4-3.3c-10.3-0.5-20.2,3.7-27,11.6  c-6.4,7.7-9.6,18.3-9.6,31.7s3.2,23.7,9.6,30.8L899.1,744.3z M909.1,686.6c4.3-4.3,10.3-6.6,16.4-6.3c5.6-0.4,11.1,1.8,14.8,6  c3.7,5.4,5.5,11.8,5.2,18.4h-43.9c0.6-6.7,3.3-13,7.7-18H909.1z M990.2,753.2v-55.6c7.7-10.7,16.8-16.1,27.3-16.1  c4.5-0.4,9,1.3,12.2,4.5c2.9,4.1,4.3,9.2,3.9,14.2v52.9h11.6v-54.5c0.5-7.5-1.7-15-6.2-21.1c-4.6-5-11.1-7.6-17.9-7.2  c-12,0.2-23.3,5.8-30.8,15.2v-13.2h-11.6v80.9L990.2,753.2z M1084.6,755.1c7.2,0.4,14.4-1.8,20.1-6.3c5-4.1,7.9-10.2,7.7-16.7  c0.1-6.1-2.5-12-7.1-16.1c-2.3-1.9-4.7-3.7-7.3-5.2c-2.5-1.6-5.1-3-7.7-4.3s-4.9-2.7-7-4c-2-1.2-3.8-2.8-5.2-4.7  c-1.3-1.7-2-3.7-2-5.8c-0.1-3.2,1.5-6.3,4.2-8c3.4-2.2,7.5-3.3,11.6-3c4.8,0.1,9.7,0.8,14.3,2.2l2.5-9.9c-5.6-1.8-11.4-2.7-17.2-2.7  c-7-0.3-13.9,1.7-19.6,5.7c-4.9,3.8-7.7,9.8-7.4,16c-0.1,3.1,0.6,6.2,2,9c1.2,2.5,3,4.8,5.2,6.6c2.2,1.8,4.6,3.4,7.2,4.8  c2.5,1.5,5.1,2.8,7.7,4.1c2.4,1.2,4.8,2.4,7,3.9c2,1.3,3.7,3,5,5c3.4,5.1,2.3,11.9-2.6,15.6c-3.4,2.4-7.4,3.6-11.6,3.4  c-5.9-0.2-11.7-1.4-17.1-3.7l-3.2,10.4c6.6,2.5,13.5,3.8,20.6,3.9V755.1z M1134.7,744.6c6.4,7.1,15.6,10.7,27.8,10.7  c10.1,0,20-2.4,28.9-7.1l-4.2-9.4c-7.3,3.9-15.3,5.9-23.6,6.1c-17.2,0-26.2-9.9-27-29.7h56.1c0.2-2.6,0.3-5.1,0.3-7.5  c0-3.5-0.3-7-0.8-10.5c-0.7-4.9-2.2-9.6-4.7-13.9c-2.4-4-5.9-7.3-10.1-9.3c-4.8-2.3-10.1-3.4-15.4-3.3c-10.3-0.5-20.2,3.7-27,11.6  c-6.4,7.7-9.6,18.3-9.6,31.7s3.2,23.7,9.6,30.8L1134.7,744.6z M1144.6,686.8c4.3-4.3,10.3-6.6,16.4-6.3c5.6-0.4,11.1,1.8,14.9,6  c3.7,5.4,5.5,11.8,5.1,18.4h-43.9c0.6-6.7,3.3-13,7.7-18H1144.6z M1216.8,744.6c6.4,7.1,15.6,10.7,27.8,10.7c10.1,0,20-2.4,28.9-7.1  l-4.2-9.4c-7.2,3.8-15.3,5.9-23.5,6.1c-17.2,0-26.1-9.9-27-29.7h56.4c0.2-2.6,0.3-5.1,0.3-7.5c0-3.5-0.3-7-0.8-10.5  c-0.8-4.9-2.5-9.7-5-13.9c-2.4-4-5.9-7.3-10.1-9.3c-4.9-2.3-10.2-3.4-15.6-3.3c-10.3-0.5-20.2,3.7-27,11.6  c-6.4,7.7-9.6,18.3-9.6,31.7s3.2,23.7,9.6,30.8L1216.8,744.6z M1226.8,686.8c4.3-4.3,10.3-6.6,16.4-6.3c5.6-0.4,11.1,1.8,14.9,6  c3.7,5.4,5.5,11.8,5.1,18.4h-43.9C1219.8,698.2,1222.5,691.9,1226.8,686.8L1226.8,686.8z"/>
</svg></svg>
