<?xml version="1.0"?>
<svg xmlns="http://www.w3.org/2000/svg" id="Ebene_2" data-name="Ebene 2" viewBox="0 0 206.38 37.01" width="1115" height="200"><defs><style>.cls-1{fill:#e30613;}</style></defs><title>TSO_Logo_CMYK_pos</title><path class="cls-1" d="M64.17,43.56H51.62V67.14H46.9V43.56H34.39V39.31H64.17Z" transform="translate(-14.23 -30.13)"/><path class="cls-1" d="M99,59q0,4.61-2.38,6.51-2.11,1.67-6.79,1.66H75.88q-9.16,0-9.13-7.9h4.8c0,2.44,1.73,3.66,5.17,3.66h12a8,8,0,0,0,3.73-.68A3.39,3.39,0,0,0,94.11,59a3.62,3.62,0,0,0-2.82-3.62,16.17,16.17,0,0,0-5.05-.59c-.89,0-2.23,0-4,.09s-3.12.1-4,.1c-3.53,0-6.17-.43-8-1.31-2.46-1.24-3.69-3.43-3.69-6.59q0-4.29,2.54-6.15,2.19-1.59,6.67-1.59H89.07q9.8,0,9.8,7.86h-5q0-3.64-5.24-3.65H76.12c-2.88,0-4.33,1.21-4.33,3.61s2.64,3.78,7.9,3.78c.82,0,2,0,3.68-.14s2.85-.14,3.67-.14q5.4,0,8.18,1.47Q99,54.08,99,59Z" transform="translate(-14.23 -30.13)"/><path class="cls-1" d="M136.16,54.79q0,5.57-1.31,8.17a6.73,6.73,0,0,1-4.45,3.47,33.44,33.44,0,0,1-8.18.71H117.1q-5.85,0-8.5-1a6.43,6.43,0,0,1-4-4,26.79,26.79,0,0,1-1-8.54,33.29,33.29,0,0,1,.83-8.89,6.7,6.7,0,0,1,3.89-4.41q2.75-1.19,8.85-1.19h5.09q6.55,0,9.43,1.35a6.83,6.83,0,0,1,3.75,4.84A41.39,41.39,0,0,1,136.16,54.79Zm-4.77-.15V52a14.4,14.4,0,0,0-.79-5.66,3.92,3.92,0,0,0-2.9-2.16,28.45,28.45,0,0,0-5.64-.36h-4.61c-3.83,0-6.26.39-7.26,1.19q-1.83,1.47-1.83,7v2.66c0,3.6.62,5.87,1.87,6.83q1.47,1.07,7.11,1.07h4.8a30.79,30.79,0,0,0,5.52-.32,3.93,3.93,0,0,0,2.92-2.08A13.6,13.6,0,0,0,131.39,54.64Z" transform="translate(-14.23 -30.13)"/><path class="cls-1" d="M178.84,54.88H156.13V67.14H151.4V50.63q0-6.91,2.9-9.25c1.7-1.38,4.91-2.07,9.65-2.07h7q7,0,9.61,2.1c2,1.6,3,4.66,3,9.22V67.14h-4.72Zm-22.71-4.21H178.8c0-3.15-.68-5.17-2-6q-1.5-1.07-6.59-1.07h-5.68q-5,0-6.51,1.11Q156.17,46,156.13,50.67Z" transform="translate(-14.23 -30.13)"/><path class="cls-1" d="M220.61,52.18V55c0,4.74-.76,7.93-2.26,9.57s-4.76,2.62-9.41,2.62H200.4q-7.62,0-10.09-2.9-2.25-2.61-2.26-10.32a36.43,36.43,0,0,1,.72-8.61,7.21,7.21,0,0,1,3.63-4.77q2.72-1.42,8.48-1.43h7.7c3.73,0,6.49.45,8.26,1.35,2.51,1.27,3.76,3.59,3.73,6.95h-4.84A3.71,3.71,0,0,0,213.5,44a9.2,9.2,0,0,0-4.16-.84l-4.69,0-3.62,0q-5.55.12-7.1,2.46c-.77,1.17-1.15,3.72-1.15,7.67a34.35,34.35,0,0,0,.28,5.56,4.1,4.1,0,0,0,2,3,12.14,12.14,0,0,0,5.46.88h8.26c2.83,0,4.65-.35,5.48-1s1.35-2.57,1.35-5.36H203.89V52.18Z" transform="translate(-14.23 -30.13)"/><rect class="cls-1" x="6.72" y="13.45" width="6.72" height="6.72"/><rect class="cls-1" y="6.72" width="6.72" height="6.72"/><rect class="cls-1" x="6.72" width="6.72" height="6.72"/></svg>
