<?xml version="1.0" standalone="no"?>
<!DOCTYPE svg PUBLIC "-//W3C//DTD SVG 20010904//EN"
 "http://www.w3.org/TR/2001/REC-SVG-20010904/DTD/svg10.dtd">
<svg version="1.0" xmlns="http://www.w3.org/2000/svg"
 width="700.000000pt" height="700.000000pt" viewBox="0 0 700.000000 700.000000"
 preserveAspectRatio="xMidYMid meet">
<metadata>
Created by potrace 1.14, written by Peter Selinger 2001-2017
</metadata>
<g transform="translate(0.000000,700.000000) scale(0.100000,-0.100000)"
fill="#f47c00" stroke="none">
<path d="M2535 6337 c-312 -34 -570 -246 -674 -553 -30 -91 -35 -139 -35 -381
-1 -141 -5 -223 -11 -223 -5 -1 -116 -3 -245 -4 -272 -4 -334 -16 -480 -92
-232 -119 -388 -341 -427 -604 -8 -59 -10 -3040 -1 -3105 25 -194 90 -333 217
-469 122 -129 286 -213 467 -239 60 -9 482 -12 1595 -11 1405 0 1520 2 1599
18 110 23 247 88 332 158 60 49 178 176 178 191 0 3 13 28 28 54 33 57 68 149
83 224 7 30 13 157 14 282 2 126 6 231 8 234 3 3 108 6 234 8 259 3 314 11
443 65 247 105 437 352 475 620 5 30 9 735 9 1565 1 1153 -2 1528 -11 1585
-32 194 -111 342 -255 474 -115 107 -276 183 -428 202 -83 10 -3022 12 -3115
1z m3110 -445 c45 -13 116 -56 157 -94 40 -39 85 -127 96 -188 6 -33 9 -651 8
-1555 -2 -1421 -3 -1503 -20 -1550 -45 -123 -143 -207 -272 -235 -33 -7 -541
-10 -1564 -8 l-1515 3 -66 32 c-78 39 -140 102 -177 181 l-27 57 -2 1525 c-2
1305 -1 1533 12 1579 33 125 153 238 273 257 21 3 38 7 39 8 1 1 681 1 1510 1
1113 -1 1519 -4 1548 -13z m-3824 -1169 c0 -10 2 -511 3 -1113 2 -602 7 -1111
10 -1130 63 -307 289 -549 591 -632 80 -21 82 -22 1180 -24 605 -2 1108 -3
1118 -3 16 -1 17 -17 17 -198 0 -132 -5 -217 -14 -256 -25 -108 -118 -210
-231 -253 -48 -18 -100 -19 -1580 -18 l-1530 0 -60 24 c-82 32 -173 122 -205
205 l-24 60 -1 1515 c-1 1125 2 1527 10 1560 35 133 142 240 270 269 22 5 131
9 243 10 186 1 202 0 203 -16z"/>
</g>
</svg>
