<?xml version="1.0" encoding="utf-8"?>
<!-- Generator: Adobe Illustrator 28.0.0, SVG Export Plug-In . SVG Version: 6.00 Build 0)  -->
<svg version="1.1" xmlns="http://www.w3.org/2000/svg" xmlns:xlink="http://www.w3.org/1999/xlink" x="0px" y="0px"
	 viewBox="0 0 800 240" style="enable-background:new 0 0 800 240;" xml:space="preserve">
<style type="text/css">
	.st0{fill:#020203;}
	.st1{fill:#010202;}
</style>
<g id="Ebene_1">
</g>
<g id="Layer_2">
	<g>
		<path class="st0" d="M696.9,55c-38,0-68.8,30.8-68.8,68.8s30.8,68.8,68.8,68.8s68.8-30.8,68.8-68.8S734.9,55,696.9,55z
			 M733.4,102.2c-2.5-2.5-6.6-2.6-9.2-0.2l-32.8,30.4l-16.6-16.6c-2.5-2.5-6.6-2.6-9.2-0.2l-22.6,21c-1-4.1-1.6-8.4-1.6-12.8
			c0-30.6,24.9-55.5,55.5-55.5c29.7,0,53.9,23.4,55.4,52.7L733.4,102.2z"/>
	</g>
	<g>
		<path d="M2.8,32h79c30.5,0,54.6,8.4,72.4,25.1c17.7,16.7,26.6,38.3,26.6,64.8c0,27.8-9,49.6-27,65.4c-18,15.9-43.6,23.8-77,23.8
			h-74V32z M47.4,64.8v113.4h29.1c18.9,0,33.3-5.2,43.3-15.6c10-10.4,15-24.1,15-41.1c0-17.6-5.1-31.5-15.2-41.6
			C109.5,69.9,94.9,64.8,76,64.8H47.4z"/>
		<path d="M346,178.2V211H214V32h130.2v32.8h-85.6v37.6h81.6v32.8h-81.6v43.1H346z"/>
		<path d="M476.4,98.4L534,32h38.8V211h-44.6V99.3l-48.4,56.1h-6.7l-48.4-56.1V211h-44.6V32h38.7L476.4,98.4z"/>
	</g>
</g>
<g id="Isolationsmodus">
	<path class="st1" d="M697.8,31.7c29.9,0,54,9,72.5,27c18.5,18,27.7,39,27.7,62.9c0,24.3-9.4,45.3-28.1,63.1
		c-18.7,17.8-42.8,26.7-72.1,26.7c-29.7,0-53.9-8.9-72.5-26.6c-18.7-17.7-28-38.8-28-63.2c0-24,9.3-45,27.8-63
		C643.6,40.7,667.9,31.7,697.8,31.7z M697.8,175.1c16.6,0,29.9-4.9,40-14.7c10.1-9.8,15.2-22.7,15.2-38.7c0-16.1-5.1-29-15.2-38.8
		c-10.1-9.8-23.5-14.7-40-14.7c-16.6,0-30.1,4.9-40.2,14.7c-10.2,9.8-15.2,22.7-15.2,38.8c0,16,5.1,28.9,15.2,38.7
		C667.8,170.2,681.2,175.1,697.8,175.1z"/>
</g>
</svg>
