<?xml version="1.0" encoding="utf-8"?>
<!-- Generator: Adobe Illustrator 17.0.0, SVG Export Plug-In . SVG Version: 6.00 Build 0)  -->
<!DOCTYPE svg PUBLIC "-//W3C//DTD SVG 1.1//EN" "http://www.w3.org/Graphics/SVG/1.1/DTD/svg11.dtd">
<svg version="1.1" id="Layer_1" xmlns="http://www.w3.org/2000/svg" xmlns:xlink="http://www.w3.org/1999/xlink" x="0px" y="0px"
	 width="512px" height="512px" viewBox="0 0 512 512" enable-background="new 0 0 512 512" xml:space="preserve">
<g id="_x23_e20219ff">
	<path fill="#E21F26" d="M257.821,1.506h11.961c12.255,2.075,24.099,6.715,34.689,13.214c12.314,9.162,19.674,23.394,25.097,37.43
		c4.307,12.862,9.553,26.702,6.46,40.406c-3.113,9.338-17.09,6.578-18.48-2.408c-3.778-18.402-8.516-38.546-23.766-51.055
		c-10.924-8.477-24.901-14.036-38.879-13.292c-12.568,0.959-21.71,11.198-33.691,13.919c-9.005,0.646-15.935-6.441-23.629-9.964
		c-15.113-8.34-33.476-2.545-47.062,6.167c-12.627,10.18-17.364,26.604-21.24,41.717c-1.918,9.083-10.65,13.997-15.974,20.927
		c-6.617,8.418-14.154,17.266-15.642,28.229c0.959,8.809,7.498,17.09,4.62,26.193c-1.057,5.286-5.599,10.552-11.433,9.984
		c-7.185-0.098-11.139-7.361-13.077-13.371c-3.817-11.942-8.183-25.195-3.426-37.528c5.227-13.586,14.526-25.293,25.489-34.748
		c3.759-3.543,8.457-6.871,9.612-12.235c4.366-16.053,9.064-33.084,20.829-45.437c6.225-6.852,15.172-10.101,23.629-13.253
		c11.237-4.052,23.844-5.755,35.316-1.547c10.943,3.269,20.555,11.805,32.419,11.256C234.368,12.998,244.763,3.758,257.821,1.506z"
		/>
	<path fill="#E21F26" d="M247.288,115.206c14.408-7.713,30.99-13.958,47.571-10.708c11.08,1.938,19.89,10.141,30.97,11.961
		c11.178,1.586,20.399-5.99,30.167-9.964c11.433-5.012,24.51-4.346,36.236-0.705c11.217,3.504,22.963,8.242,30.069,18.147
		c8.712,11.687,13.801,25.723,17.129,39.818c0.842,5.912,6.069,9.397,9.964,13.332c11.746,10.708,21.417,23.942,26.839,38.977
		v21.221c-2.682,12.235-8.144,24.059-16.757,33.26c-13.253,14.35-32.203,20.986-50.546,26.037
		c-0.215,37.371,0.039,74.762-0.137,112.153c0,9.416-7.341,16.855-15.172,20.986c-18.95,10.278-40.876,13.88-62.234,13.371
		c-16.797,0.431-33.809-0.959-49.685-6.793c-0.176-6.989-0.215-13.978-0.078-20.966c15.328,5.462,31.694,6.871,47.825,7.361
		c19.146-1.272,39.916-2.388,55.852-14.447c-2.584-4.033-6.127-7.517-10.865-8.829c-15.172-4.777-31.048-7.968-47.023-7.537
		c-15.798,0.039-31.068,4.796-45.75,10.238c-0.196-7.008-0.157-14.017,0-21.025c8.986-3.543,18.421-6.049,28.073-6.871
		c25.489-3.034,51.936-1.018,75.78,8.966c0.685-35.61-0.47-71.258,0.568-106.868c18.069-3.504,37.058-7.557,51.369-19.948
		c9.358-8.046,16.288-20.908,13.057-33.437c-4.64-14.115-15.661-24.608-25.547-35.159c-5.051-5.031-5.716-12.431-7.85-18.891
		c-3.582-12.49-9.103-25.547-20.125-33.241c-10.826-6.754-24.197-11.256-36.96-8.124c-10.571,2.427-18.519,10.806-28.875,13.664
		c-10.082,0.255-17.658-7.811-26.526-11.413c-13.919-6.793-30.324-1.918-42.716,5.893c-8.555,5.305-12.118,15.23-18.813,22.258
		c-7.282,5.246-19.635-2.016-17.599-11.041C230.218,134.998,236.326,122.508,247.288,115.206z"/>
	<path fill="#E21F26" d="M214.106,172.037c18.754-4.953,38.84,0.979,54.52,11.628c14.78,12.118,20.712,31.459,24.94,49.391
		c1.096,5.364,6.245,8.163,9.769,11.824c11.237,10.513,22.082,22.807,26.095,37.998c2.839,16.679-0.215,34.866-10.708,48.471
		c-12.686,18.265-34.337,27.094-55.206,32.184c-0.587,37.156,0.078,74.332-0.294,111.488c0.059,10.924-9.377,18.735-18.284,23.335
		c-14.917,7.165-31.322,11.354-47.864,12.137h-30.892c-14.996-1.86-29.874-5.795-43.362-12.666
		c-8.163-4.307-16.66-11.1-17.208-21.084c-0.881-37.508,0.548-75.095-0.666-112.584c-19.185-4.757-38.703-12.314-52.465-27.074
		c-9.201-10.238-15.191-23.394-16.718-37.097v-13.919c4.307-15.426,14.212-28.719,26.115-39.172
		c4.326-4.268,10.336-7.791,11.452-14.271c4.894-17.599,10.532-36.804,25.214-48.863c15.093-9.612,33.906-15.759,51.76-11.315
		c11.883,2.662,21.71,12.02,34.259,12.02C195.489,183.293,203.77,174.993,214.106,172.037 M122.058,199.659
		c-15.054,6.401-22.807,22.552-26.507,37.587c-2.016,6.225-2.036,13.704-7.224,18.402c-10.415,10.356-21.417,21.26-25.86,35.688
		c-2.545,11.765,3.406,23.844,12.098,31.596c14.428,13.273,34.063,18.069,52.739,21.886c0.372,2.956,0.763,5.932,0.822,8.946
		c0.137,32.125-0.294,64.25,0.215,96.355c9.592-2.682,18.911-6.48,28.856-7.557c27.642-3.954,56.83-2.917,82.71,8.437
		c0.626-35.805-0.059-71.65,0.333-107.475c16.894-2.623,33.906-7.165,48.06-17.169c8.359-6.793,16.581-15.818,16.699-27.25
		c1.468-12.999-7.752-23.413-15.093-33.006c-5.188-6.989-14.056-11.668-15.916-20.712c-4.111-15.133-9.005-31.577-21.984-41.541
		c-11.1-6.695-24.451-12.098-37.567-8.966c-11.119,2.584-19.048,12.059-29.972,14.917c-9.925,0.02-16.992-8.653-25.704-12.353
		C147.155,191.319,133.314,194.119,122.058,199.659 M161.446,461.22c-10.669,2.486-22.219,3.876-31.127,10.826
		c-0.039,1.135-0.098,3.406-0.137,4.522c15.857,10.806,35.805,12.02,54.364,12.96c18.598-1.429,39.212-2.212,54.364-14.526
		c-2.702-3.72-6.323-6.734-10.767-8.124C206.765,459.928,183.704,456.678,161.446,461.22z"/>
	<path fill="#E21F26" d="M183.156,229.572c20.164,0.039,40.347-0.196,60.53,0.117c-0.372,8.457,1.429,17.306-1.312,25.489
		c-13.332,27.466-17.384,58.181-21.906,88.055c-8.614,0.294-17.227,0.215-25.841,0.137c0.489-20.594,5.795-40.719,11.746-60.315
		c2.643-9.318,7.674-17.678,11.805-26.369c-11.687-0.509-23.374,0.059-35.042-0.45C182.843,247.347,182.882,238.46,183.156,229.572z
		"/>
	<path fill="#E21F26" d="M143.455,244.156c4.875-3.524,7.38-9.24,9.925-14.487c5.951-0.215,11.902-0.196,17.834,0.157
		c0,37.822,0.568,75.663-0.255,113.465c-8.359,0.215-16.718,0.137-25.058,0.117c-1.879-24.98-0.254-50.116-0.881-75.154
		c-5.501-0.02-11.022-0.157-16.523-0.431c-0.157-6.636-0.215-13.273,0.137-19.909C133.667,247.23,138.894,246.545,143.455,244.156z"
		/>
</g>
</svg>
